M48
; DRILL file KiCad 10.0.0-rc2 date 2026-05-13T13:51:29
; FORMAT={-:-/ absolute / inch / decimal}
; #@! TF.CreationDate,2026-05-13T13:51:29-07:00
; #@! TF.GenerationSoftware,Kicad,Pcbnew,10.0.0-rc2
; #@! TF.FileFunction,Plated,1,2,PTH
FMAT,2
INCH
; #@! TA.AperFunction,Plated,PTH,ComponentDrill
T1C0.0098
; #@! TA.AperFunction,Plated,PTH,ViaDrill
T2C0.0118
; #@! TA.AperFunction,Plated,PTH,ComponentDrill
T3C0.0197
; #@! TA.AperFunction,Plated,PTH,ComponentDrill
T4C0.0315
; #@! TA.AperFunction,Plated,PTH,ComponentDrill
T5C0.0394
; #@! TA.AperFunction,Plated,PTH,ComponentDrill
T6C0.0550
; #@! TA.AperFunction,Plated,PTH,ComponentDrill
T7C0.0590
%
G90
G05
T1
X5.7201Y-1.9467
X5.7201Y-1.986
X6.961Y-2.9594
X6.961Y-2.9988
T2
X4.1213Y-2.2654
X4.1823Y-2.8059
X4.198Y-2.2063
X4.3661Y-2.3232
X4.4764Y-2.8811
X4.4815Y-2.1732
X4.5378Y-2.624
X4.5441Y-2.7012
X4.6665Y-2.4941
X4.6709Y-2.0996
X4.7224Y-2.6118
X4.7299Y-2.7106
X4.8228Y-2.9331
X4.8909Y-3.1402
X4.8976Y-2.9469
X4.9059Y-1.8445
X4.9087Y-2.2654
X4.9425Y-3.1091
X5.2559Y-2.9331
X5.2795Y-1.8386
X5.2988Y-3.2634
X5.3024Y-2.2654
X5.3024Y-2.6591
X5.348Y-2.3441
X5.3583Y-1.9567
X5.4217Y-2.9943
X5.437Y-1.9567
X5.4567Y-1.8189
X5.4956Y-3.2052
X5.5504Y-2.5457
X5.5681Y-2.1543
X5.6634Y-2.9559
X5.6929Y-1.7598
X5.6937Y-2.6681
X5.6961Y-3.0528
X5.6961Y-3.4465
X5.7567Y-2.5606
X5.8177Y-2.3618
X5.8201Y-2.0614
X5.8504Y-2.1142
X5.8661Y-3.1496
X5.8882Y-1.6685
X6.0898Y-3.4465
X6.1394Y-2.6157
X6.1417Y-2.8346
X6.1516Y-2.874
X6.1516Y-3.0118
X6.1516Y-3.0709
X6.1654Y-2.0157
X6.1654Y-2.1732
X6.1693Y-2.9665
X6.1811Y-2.8937
X6.2106Y-2.7657
X6.2106Y-3.1004
X6.2163Y-2.9331
X6.2598Y-2.7756
X6.2598Y-3.0906
X6.2992Y-2.7953
X6.3189Y-3.0315
X6.3386Y-2.7559
X6.3681Y-3.0807
X6.378Y-2.7165
X6.4173Y-2.6602
X6.4173Y-2.9331
X6.4173Y-3.1004
X6.4547Y-2.2563
X6.4567Y-2.7559
X6.4567Y-3.0906
X6.4665Y-2.628
X6.4665Y-2.8839
X6.4665Y-2.9823
X6.4835Y-1.8717
X6.4862Y-2.7264
X6.4862Y-2.8346
X6.487Y-3.0642
X6.4917Y-3.0205
X6.5157Y-2.6969
X6.5551Y-2.7067
X6.5945Y-2.687
X6.6142Y-2.6181
X6.6142Y-2.6575
X6.8307Y-2.3228
X6.8772Y-2.2654
X6.8772Y-3.4465
X6.9685Y-3.1409
X7.0776Y-3.2697
X7.2709Y-2.6591
X7.2709Y-3.0528
X7.2709Y-3.4465
T3
X4.2709Y-2.4591
X4.2709Y-2.5083
X4.2709Y-2.5575
X4.2709Y-2.6067
X4.2709Y-2.6559
T4
X6.0155Y-2.0903
X6.0155Y-2.169
X6.0155Y-2.2477
X6.0155Y-2.3265
X6.0155Y-2.4052
X6.0155Y-2.484
X6.0155Y-2.5627
X6.0155Y-2.6414
X6.5509Y-2.0903
X6.5509Y-2.169
X6.5509Y-2.2477
X6.5509Y-2.3265
X6.5509Y-2.4052
X6.5509Y-2.484
X6.5509Y-2.5627
X6.5509Y-2.6414
T5
X6.3376Y-3.5159
X6.4376Y-3.5159
X6.5376Y-3.5159
X6.6376Y-3.5159
X6.7376Y-3.5159
X6.8551Y-2.5583
X6.9904Y-3.6545
X7.052Y-2.6961
X7.0904Y-3.6545
T6
X6.216Y-2.8305
X6.216Y-3.0315
X6.417Y-2.8305
X6.417Y-3.0315
T7
X6.3165Y-2.931
M30
