%TF.GenerationSoftware,KiCad,Pcbnew,9.0.2*%
%TF.CreationDate,2025-12-25T22:22:40-08:00*%
%TF.ProjectId,FlightController,466c6967-6874-4436-9f6e-74726f6c6c65,rev?*%
%TF.SameCoordinates,Original*%
%TF.FileFunction,Drillmap*%
%TF.FilePolarity,Positive*%
%FSLAX45Y45*%
G04 Gerber Fmt 4.5, Leading zero omitted, Abs format (unit mm)*
G04 Created by KiCad (PCBNEW 9.0.2) date 2025-12-25 22:22:40*
%MOMM*%
%LPD*%
G01*
G04 APERTURE LIST*
%ADD10C,0.100000*%
%ADD11C,0.200000*%
%ADD12C,0.150000*%
%ADD13C,0.160000*%
G04 APERTURE END LIST*
D10*
X11007811Y-5653669D02*
G75*
G02*
X10607811Y-5653669I-200000J0D01*
G01*
X10607811Y-5653669D02*
G75*
G02*
X11007811Y-5653669I200000J0D01*
G01*
X11000740Y-12279260D02*
G75*
G02*
X10600740Y-12279260I-200000J0D01*
G01*
X10600740Y-12279260D02*
G75*
G02*
X11000740Y-12279260I200000J0D01*
G01*
X17626331Y-12272189D02*
G75*
G02*
X17226331Y-12272189I-200000J0D01*
G01*
X17226331Y-12272189D02*
G75*
G02*
X17626331Y-12272189I200000J0D01*
G01*
D11*
X19190000Y-8970000D02*
G75*
G02*
X9030000Y-8970000I-5080000J0D01*
G01*
X9030000Y-8970000D02*
G75*
G02*
X19190000Y-8970000I5080000J0D01*
G01*
D10*
X17619260Y-5660740D02*
G75*
G02*
X17219260Y-5660740I-200000J0D01*
G01*
X17219260Y-5660740D02*
G75*
G02*
X17619260Y-5660740I200000J0D01*
G01*
D11*
D10*
X15485000Y-7205000D02*
X15515000Y-7235000D01*
X15515000Y-7205000D02*
X15485000Y-7235000D01*
X16175000Y-6205000D02*
X16205000Y-6235000D01*
X16205000Y-6205000D02*
X16175000Y-6235000D01*
X13392450Y-4630000D02*
G75*
G02*
X13303550Y-4630000I-44450J0D01*
G01*
X13303550Y-4630000D02*
G75*
G02*
X13392450Y-4630000I44450J0D01*
G01*
X13392450Y-4884000D02*
G75*
G02*
X13303550Y-4884000I-44450J0D01*
G01*
X13303550Y-4884000D02*
G75*
G02*
X13392450Y-4884000I44450J0D01*
G01*
X13392450Y-5138000D02*
G75*
G02*
X13303550Y-5138000I-44450J0D01*
G01*
X13303550Y-5138000D02*
G75*
G02*
X13392450Y-5138000I44450J0D01*
G01*
X13392450Y-5392000D02*
G75*
G02*
X13303550Y-5392000I-44450J0D01*
G01*
X13303550Y-5392000D02*
G75*
G02*
X13392450Y-5392000I44450J0D01*
G01*
X13392450Y-5646000D02*
G75*
G02*
X13303550Y-5646000I-44450J0D01*
G01*
X13303550Y-5646000D02*
G75*
G02*
X13392450Y-5646000I44450J0D01*
G01*
X13392450Y-5900000D02*
G75*
G02*
X13303550Y-5900000I-44450J0D01*
G01*
X13303550Y-5900000D02*
G75*
G02*
X13392450Y-5900000I44450J0D01*
G01*
X13392450Y-6154000D02*
G75*
G02*
X13303550Y-6154000I-44450J0D01*
G01*
X13303550Y-6154000D02*
G75*
G02*
X13392450Y-6154000I44450J0D01*
G01*
X14916450Y-4630000D02*
G75*
G02*
X14827550Y-4630000I-44450J0D01*
G01*
X14827550Y-4630000D02*
G75*
G02*
X14916450Y-4630000I44450J0D01*
G01*
X14916450Y-4884000D02*
G75*
G02*
X14827550Y-4884000I-44450J0D01*
G01*
X14827550Y-4884000D02*
G75*
G02*
X14916450Y-4884000I44450J0D01*
G01*
X14916450Y-5138000D02*
G75*
G02*
X14827550Y-5138000I-44450J0D01*
G01*
X14827550Y-5138000D02*
G75*
G02*
X14916450Y-5138000I44450J0D01*
G01*
X14916450Y-5392000D02*
G75*
G02*
X14827550Y-5392000I-44450J0D01*
G01*
X14827550Y-5392000D02*
G75*
G02*
X14916450Y-5392000I44450J0D01*
G01*
X14916450Y-5646000D02*
G75*
G02*
X14827550Y-5646000I-44450J0D01*
G01*
X14827550Y-5646000D02*
G75*
G02*
X14916450Y-5646000I44450J0D01*
G01*
X14916450Y-5900000D02*
G75*
G02*
X14827550Y-5900000I-44450J0D01*
G01*
X14827550Y-5900000D02*
G75*
G02*
X14916450Y-5900000I44450J0D01*
G01*
X14916450Y-6154000D02*
G75*
G02*
X14827550Y-6154000I-44450J0D01*
G01*
X14827550Y-6154000D02*
G75*
G02*
X14916450Y-6154000I44450J0D01*
G01*
X11070000Y-8258000D02*
X11070000Y-8358000D01*
X11020000Y-8308000D02*
X11120000Y-8308000D01*
X11070000Y-8512000D02*
X11070000Y-8612000D01*
X11020000Y-8562000D02*
X11120000Y-8562000D01*
X11070000Y-8766000D02*
X11070000Y-8866000D01*
X11020000Y-8816000D02*
X11120000Y-8816000D01*
X11070000Y-9020000D02*
X11070000Y-9120000D01*
X11020000Y-9070000D02*
X11120000Y-9070000D01*
X11070000Y-9274000D02*
X11070000Y-9374000D01*
X11020000Y-9324000D02*
X11120000Y-9324000D01*
X13340000Y-8342000D02*
X13340000Y-8442000D01*
X13290000Y-8392000D02*
X13390000Y-8392000D01*
X13340000Y-8596000D02*
X13340000Y-8696000D01*
X13290000Y-8646000D02*
X13390000Y-8646000D01*
X13340000Y-8850000D02*
X13340000Y-8950000D01*
X13290000Y-8900000D02*
X13390000Y-8900000D01*
X13510000Y-12390000D02*
X13510000Y-12490000D01*
X13460000Y-12440000D02*
X13560000Y-12440000D01*
X15230000Y-12390000D02*
X15230000Y-12490000D01*
X15180000Y-12440000D02*
X15280000Y-12440000D01*
X16670395Y-11329605D02*
X16670395Y-11429605D01*
X16620395Y-11379605D02*
X16720395Y-11379605D01*
X16850000Y-11150000D02*
X16850000Y-11250000D01*
X16800000Y-11200000D02*
X16900000Y-11200000D01*
X17029605Y-10970395D02*
X17029605Y-11070395D01*
X16979605Y-11020395D02*
X17079605Y-11020395D01*
D12*
X17973034Y-9323034D02*
X17973034Y-9216967D01*
X17866967Y-9216967D01*
X17866967Y-9323034D01*
X17973034Y-9323034D01*
D13*
X17666000Y-9096000D02*
X17746000Y-9016000D01*
X17666000Y-8936000D01*
X17586000Y-9016000D01*
X17666000Y-9096000D01*
X17666000Y-9604000D02*
X17746000Y-9524000D01*
X17666000Y-9444000D01*
X17586000Y-9524000D01*
X17666000Y-9604000D01*
X18174000Y-9096000D02*
X18254000Y-9016000D01*
X18174000Y-8936000D01*
X18094000Y-9016000D01*
X18174000Y-9096000D01*
X18174000Y-9604000D02*
X18254000Y-9524000D01*
X18174000Y-9444000D01*
X18094000Y-9524000D01*
X18174000Y-9604000D01*
D11*
X9280777Y-14371484D02*
X9280777Y-14171484D01*
X9280777Y-14171484D02*
X9328396Y-14171484D01*
X9328396Y-14171484D02*
X9356967Y-14181008D01*
X9356967Y-14181008D02*
X9376015Y-14200055D01*
X9376015Y-14200055D02*
X9385539Y-14219103D01*
X9385539Y-14219103D02*
X9395063Y-14257198D01*
X9395063Y-14257198D02*
X9395063Y-14285769D01*
X9395063Y-14285769D02*
X9385539Y-14323865D01*
X9385539Y-14323865D02*
X9376015Y-14342912D01*
X9376015Y-14342912D02*
X9356967Y-14361960D01*
X9356967Y-14361960D02*
X9328396Y-14371484D01*
X9328396Y-14371484D02*
X9280777Y-14371484D01*
X9480777Y-14371484D02*
X9480777Y-14238150D01*
X9480777Y-14276246D02*
X9490301Y-14257198D01*
X9490301Y-14257198D02*
X9499824Y-14247674D01*
X9499824Y-14247674D02*
X9518872Y-14238150D01*
X9518872Y-14238150D02*
X9537920Y-14238150D01*
X9604586Y-14371484D02*
X9604586Y-14238150D01*
X9604586Y-14171484D02*
X9595063Y-14181008D01*
X9595063Y-14181008D02*
X9604586Y-14190531D01*
X9604586Y-14190531D02*
X9614110Y-14181008D01*
X9614110Y-14181008D02*
X9604586Y-14171484D01*
X9604586Y-14171484D02*
X9604586Y-14190531D01*
X9728396Y-14371484D02*
X9709348Y-14361960D01*
X9709348Y-14361960D02*
X9699824Y-14342912D01*
X9699824Y-14342912D02*
X9699824Y-14171484D01*
X9833158Y-14371484D02*
X9814110Y-14361960D01*
X9814110Y-14361960D02*
X9804586Y-14342912D01*
X9804586Y-14342912D02*
X9804586Y-14171484D01*
X10061729Y-14371484D02*
X10061729Y-14171484D01*
X10061729Y-14171484D02*
X10128396Y-14314341D01*
X10128396Y-14314341D02*
X10195063Y-14171484D01*
X10195063Y-14171484D02*
X10195063Y-14371484D01*
X10376015Y-14371484D02*
X10376015Y-14266722D01*
X10376015Y-14266722D02*
X10366491Y-14247674D01*
X10366491Y-14247674D02*
X10347444Y-14238150D01*
X10347444Y-14238150D02*
X10309348Y-14238150D01*
X10309348Y-14238150D02*
X10290301Y-14247674D01*
X10376015Y-14361960D02*
X10356967Y-14371484D01*
X10356967Y-14371484D02*
X10309348Y-14371484D01*
X10309348Y-14371484D02*
X10290301Y-14361960D01*
X10290301Y-14361960D02*
X10280777Y-14342912D01*
X10280777Y-14342912D02*
X10280777Y-14323865D01*
X10280777Y-14323865D02*
X10290301Y-14304817D01*
X10290301Y-14304817D02*
X10309348Y-14295293D01*
X10309348Y-14295293D02*
X10356967Y-14295293D01*
X10356967Y-14295293D02*
X10376015Y-14285769D01*
X10471253Y-14238150D02*
X10471253Y-14438150D01*
X10471253Y-14247674D02*
X10490301Y-14238150D01*
X10490301Y-14238150D02*
X10528396Y-14238150D01*
X10528396Y-14238150D02*
X10547444Y-14247674D01*
X10547444Y-14247674D02*
X10556967Y-14257198D01*
X10556967Y-14257198D02*
X10566491Y-14276246D01*
X10566491Y-14276246D02*
X10566491Y-14333388D01*
X10566491Y-14333388D02*
X10556967Y-14352436D01*
X10556967Y-14352436D02*
X10547444Y-14361960D01*
X10547444Y-14361960D02*
X10528396Y-14371484D01*
X10528396Y-14371484D02*
X10490301Y-14371484D01*
X10490301Y-14371484D02*
X10471253Y-14361960D01*
X10652205Y-14352436D02*
X10661729Y-14361960D01*
X10661729Y-14361960D02*
X10652205Y-14371484D01*
X10652205Y-14371484D02*
X10642682Y-14361960D01*
X10642682Y-14361960D02*
X10652205Y-14352436D01*
X10652205Y-14352436D02*
X10652205Y-14371484D01*
X10652205Y-14247674D02*
X10661729Y-14257198D01*
X10661729Y-14257198D02*
X10652205Y-14266722D01*
X10652205Y-14266722D02*
X10642682Y-14257198D01*
X10642682Y-14257198D02*
X10652205Y-14247674D01*
X10652205Y-14247674D02*
X10652205Y-14266722D01*
D10*
X8990000Y-14685000D02*
X9020000Y-14715000D01*
X9020000Y-14685000D02*
X8990000Y-14715000D01*
D11*
X9318872Y-14591484D02*
X9337920Y-14591484D01*
X9337920Y-14591484D02*
X9356967Y-14601008D01*
X9356967Y-14601008D02*
X9366491Y-14610531D01*
X9366491Y-14610531D02*
X9376015Y-14629579D01*
X9376015Y-14629579D02*
X9385539Y-14667674D01*
X9385539Y-14667674D02*
X9385539Y-14715293D01*
X9385539Y-14715293D02*
X9376015Y-14753388D01*
X9376015Y-14753388D02*
X9366491Y-14772436D01*
X9366491Y-14772436D02*
X9356967Y-14781960D01*
X9356967Y-14781960D02*
X9337920Y-14791484D01*
X9337920Y-14791484D02*
X9318872Y-14791484D01*
X9318872Y-14791484D02*
X9299824Y-14781960D01*
X9299824Y-14781960D02*
X9290301Y-14772436D01*
X9290301Y-14772436D02*
X9280777Y-14753388D01*
X9280777Y-14753388D02*
X9271253Y-14715293D01*
X9271253Y-14715293D02*
X9271253Y-14667674D01*
X9271253Y-14667674D02*
X9280777Y-14629579D01*
X9280777Y-14629579D02*
X9290301Y-14610531D01*
X9290301Y-14610531D02*
X9299824Y-14601008D01*
X9299824Y-14601008D02*
X9318872Y-14591484D01*
X9471253Y-14772436D02*
X9480777Y-14781960D01*
X9480777Y-14781960D02*
X9471253Y-14791484D01*
X9471253Y-14791484D02*
X9461729Y-14781960D01*
X9461729Y-14781960D02*
X9471253Y-14772436D01*
X9471253Y-14772436D02*
X9471253Y-14791484D01*
X9547444Y-14591484D02*
X9671253Y-14591484D01*
X9671253Y-14591484D02*
X9604586Y-14667674D01*
X9604586Y-14667674D02*
X9633158Y-14667674D01*
X9633158Y-14667674D02*
X9652205Y-14677198D01*
X9652205Y-14677198D02*
X9661729Y-14686722D01*
X9661729Y-14686722D02*
X9671253Y-14705769D01*
X9671253Y-14705769D02*
X9671253Y-14753388D01*
X9671253Y-14753388D02*
X9661729Y-14772436D01*
X9661729Y-14772436D02*
X9652205Y-14781960D01*
X9652205Y-14781960D02*
X9633158Y-14791484D01*
X9633158Y-14791484D02*
X9576015Y-14791484D01*
X9576015Y-14791484D02*
X9556967Y-14781960D01*
X9556967Y-14781960D02*
X9547444Y-14772436D01*
X9795063Y-14591484D02*
X9814110Y-14591484D01*
X9814110Y-14591484D02*
X9833158Y-14601008D01*
X9833158Y-14601008D02*
X9842682Y-14610531D01*
X9842682Y-14610531D02*
X9852205Y-14629579D01*
X9852205Y-14629579D02*
X9861729Y-14667674D01*
X9861729Y-14667674D02*
X9861729Y-14715293D01*
X9861729Y-14715293D02*
X9852205Y-14753388D01*
X9852205Y-14753388D02*
X9842682Y-14772436D01*
X9842682Y-14772436D02*
X9833158Y-14781960D01*
X9833158Y-14781960D02*
X9814110Y-14791484D01*
X9814110Y-14791484D02*
X9795063Y-14791484D01*
X9795063Y-14791484D02*
X9776015Y-14781960D01*
X9776015Y-14781960D02*
X9766491Y-14772436D01*
X9766491Y-14772436D02*
X9756967Y-14753388D01*
X9756967Y-14753388D02*
X9747444Y-14715293D01*
X9747444Y-14715293D02*
X9747444Y-14667674D01*
X9747444Y-14667674D02*
X9756967Y-14629579D01*
X9756967Y-14629579D02*
X9766491Y-14610531D01*
X9766491Y-14610531D02*
X9776015Y-14601008D01*
X9776015Y-14601008D02*
X9795063Y-14591484D01*
X9985539Y-14591484D02*
X10004586Y-14591484D01*
X10004586Y-14591484D02*
X10023634Y-14601008D01*
X10023634Y-14601008D02*
X10033158Y-14610531D01*
X10033158Y-14610531D02*
X10042682Y-14629579D01*
X10042682Y-14629579D02*
X10052205Y-14667674D01*
X10052205Y-14667674D02*
X10052205Y-14715293D01*
X10052205Y-14715293D02*
X10042682Y-14753388D01*
X10042682Y-14753388D02*
X10033158Y-14772436D01*
X10033158Y-14772436D02*
X10023634Y-14781960D01*
X10023634Y-14781960D02*
X10004586Y-14791484D01*
X10004586Y-14791484D02*
X9985539Y-14791484D01*
X9985539Y-14791484D02*
X9966491Y-14781960D01*
X9966491Y-14781960D02*
X9956967Y-14772436D01*
X9956967Y-14772436D02*
X9947444Y-14753388D01*
X9947444Y-14753388D02*
X9937920Y-14715293D01*
X9937920Y-14715293D02*
X9937920Y-14667674D01*
X9937920Y-14667674D02*
X9947444Y-14629579D01*
X9947444Y-14629579D02*
X9956967Y-14610531D01*
X9956967Y-14610531D02*
X9966491Y-14601008D01*
X9966491Y-14601008D02*
X9985539Y-14591484D01*
X10137920Y-14791484D02*
X10137920Y-14658150D01*
X10137920Y-14677198D02*
X10147444Y-14667674D01*
X10147444Y-14667674D02*
X10166491Y-14658150D01*
X10166491Y-14658150D02*
X10195063Y-14658150D01*
X10195063Y-14658150D02*
X10214110Y-14667674D01*
X10214110Y-14667674D02*
X10223634Y-14686722D01*
X10223634Y-14686722D02*
X10223634Y-14791484D01*
X10223634Y-14686722D02*
X10233158Y-14667674D01*
X10233158Y-14667674D02*
X10252205Y-14658150D01*
X10252205Y-14658150D02*
X10280777Y-14658150D01*
X10280777Y-14658150D02*
X10299825Y-14667674D01*
X10299825Y-14667674D02*
X10309348Y-14686722D01*
X10309348Y-14686722D02*
X10309348Y-14791484D01*
X10404586Y-14791484D02*
X10404586Y-14658150D01*
X10404586Y-14677198D02*
X10414110Y-14667674D01*
X10414110Y-14667674D02*
X10433158Y-14658150D01*
X10433158Y-14658150D02*
X10461729Y-14658150D01*
X10461729Y-14658150D02*
X10480777Y-14667674D01*
X10480777Y-14667674D02*
X10490301Y-14686722D01*
X10490301Y-14686722D02*
X10490301Y-14791484D01*
X10490301Y-14686722D02*
X10499825Y-14667674D01*
X10499825Y-14667674D02*
X10518872Y-14658150D01*
X10518872Y-14658150D02*
X10547444Y-14658150D01*
X10547444Y-14658150D02*
X10566491Y-14667674D01*
X10566491Y-14667674D02*
X10576015Y-14686722D01*
X10576015Y-14686722D02*
X10576015Y-14791484D01*
X10966491Y-14581960D02*
X10795063Y-14839103D01*
X11223634Y-14591484D02*
X11242682Y-14591484D01*
X11242682Y-14591484D02*
X11261729Y-14601008D01*
X11261729Y-14601008D02*
X11271253Y-14610531D01*
X11271253Y-14610531D02*
X11280777Y-14629579D01*
X11280777Y-14629579D02*
X11290301Y-14667674D01*
X11290301Y-14667674D02*
X11290301Y-14715293D01*
X11290301Y-14715293D02*
X11280777Y-14753388D01*
X11280777Y-14753388D02*
X11271253Y-14772436D01*
X11271253Y-14772436D02*
X11261729Y-14781960D01*
X11261729Y-14781960D02*
X11242682Y-14791484D01*
X11242682Y-14791484D02*
X11223634Y-14791484D01*
X11223634Y-14791484D02*
X11204586Y-14781960D01*
X11204586Y-14781960D02*
X11195063Y-14772436D01*
X11195063Y-14772436D02*
X11185539Y-14753388D01*
X11185539Y-14753388D02*
X11176015Y-14715293D01*
X11176015Y-14715293D02*
X11176015Y-14667674D01*
X11176015Y-14667674D02*
X11185539Y-14629579D01*
X11185539Y-14629579D02*
X11195063Y-14610531D01*
X11195063Y-14610531D02*
X11204586Y-14601008D01*
X11204586Y-14601008D02*
X11223634Y-14591484D01*
X11376015Y-14772436D02*
X11385539Y-14781960D01*
X11385539Y-14781960D02*
X11376015Y-14791484D01*
X11376015Y-14791484D02*
X11366491Y-14781960D01*
X11366491Y-14781960D02*
X11376015Y-14772436D01*
X11376015Y-14772436D02*
X11376015Y-14791484D01*
X11509348Y-14591484D02*
X11528396Y-14591484D01*
X11528396Y-14591484D02*
X11547444Y-14601008D01*
X11547444Y-14601008D02*
X11556967Y-14610531D01*
X11556967Y-14610531D02*
X11566491Y-14629579D01*
X11566491Y-14629579D02*
X11576015Y-14667674D01*
X11576015Y-14667674D02*
X11576015Y-14715293D01*
X11576015Y-14715293D02*
X11566491Y-14753388D01*
X11566491Y-14753388D02*
X11556967Y-14772436D01*
X11556967Y-14772436D02*
X11547444Y-14781960D01*
X11547444Y-14781960D02*
X11528396Y-14791484D01*
X11528396Y-14791484D02*
X11509348Y-14791484D01*
X11509348Y-14791484D02*
X11490301Y-14781960D01*
X11490301Y-14781960D02*
X11480777Y-14772436D01*
X11480777Y-14772436D02*
X11471253Y-14753388D01*
X11471253Y-14753388D02*
X11461729Y-14715293D01*
X11461729Y-14715293D02*
X11461729Y-14667674D01*
X11461729Y-14667674D02*
X11471253Y-14629579D01*
X11471253Y-14629579D02*
X11480777Y-14610531D01*
X11480777Y-14610531D02*
X11490301Y-14601008D01*
X11490301Y-14601008D02*
X11509348Y-14591484D01*
X11766491Y-14791484D02*
X11652206Y-14791484D01*
X11709348Y-14791484D02*
X11709348Y-14591484D01*
X11709348Y-14591484D02*
X11690301Y-14620055D01*
X11690301Y-14620055D02*
X11671253Y-14639103D01*
X11671253Y-14639103D02*
X11652206Y-14648627D01*
X11956967Y-14791484D02*
X11842682Y-14791484D01*
X11899825Y-14791484D02*
X11899825Y-14591484D01*
X11899825Y-14591484D02*
X11880777Y-14620055D01*
X11880777Y-14620055D02*
X11861729Y-14639103D01*
X11861729Y-14639103D02*
X11842682Y-14648627D01*
X12071253Y-14677198D02*
X12052206Y-14667674D01*
X12052206Y-14667674D02*
X12042682Y-14658150D01*
X12042682Y-14658150D02*
X12033158Y-14639103D01*
X12033158Y-14639103D02*
X12033158Y-14629579D01*
X12033158Y-14629579D02*
X12042682Y-14610531D01*
X12042682Y-14610531D02*
X12052206Y-14601008D01*
X12052206Y-14601008D02*
X12071253Y-14591484D01*
X12071253Y-14591484D02*
X12109348Y-14591484D01*
X12109348Y-14591484D02*
X12128396Y-14601008D01*
X12128396Y-14601008D02*
X12137920Y-14610531D01*
X12137920Y-14610531D02*
X12147444Y-14629579D01*
X12147444Y-14629579D02*
X12147444Y-14639103D01*
X12147444Y-14639103D02*
X12137920Y-14658150D01*
X12137920Y-14658150D02*
X12128396Y-14667674D01*
X12128396Y-14667674D02*
X12109348Y-14677198D01*
X12109348Y-14677198D02*
X12071253Y-14677198D01*
X12071253Y-14677198D02*
X12052206Y-14686722D01*
X12052206Y-14686722D02*
X12042682Y-14696246D01*
X12042682Y-14696246D02*
X12033158Y-14715293D01*
X12033158Y-14715293D02*
X12033158Y-14753388D01*
X12033158Y-14753388D02*
X12042682Y-14772436D01*
X12042682Y-14772436D02*
X12052206Y-14781960D01*
X12052206Y-14781960D02*
X12071253Y-14791484D01*
X12071253Y-14791484D02*
X12109348Y-14791484D01*
X12109348Y-14791484D02*
X12128396Y-14781960D01*
X12128396Y-14781960D02*
X12137920Y-14772436D01*
X12137920Y-14772436D02*
X12147444Y-14753388D01*
X12147444Y-14753388D02*
X12147444Y-14715293D01*
X12147444Y-14715293D02*
X12137920Y-14696246D01*
X12137920Y-14696246D02*
X12128396Y-14686722D01*
X12128396Y-14686722D02*
X12109348Y-14677198D01*
X12223634Y-14591484D02*
X12223634Y-14629579D01*
X12299825Y-14591484D02*
X12299825Y-14629579D01*
X12595063Y-14867674D02*
X12585539Y-14858150D01*
X12585539Y-14858150D02*
X12566491Y-14829579D01*
X12566491Y-14829579D02*
X12556968Y-14810531D01*
X12556968Y-14810531D02*
X12547444Y-14781960D01*
X12547444Y-14781960D02*
X12537920Y-14734341D01*
X12537920Y-14734341D02*
X12537920Y-14696246D01*
X12537920Y-14696246D02*
X12547444Y-14648627D01*
X12547444Y-14648627D02*
X12556968Y-14620055D01*
X12556968Y-14620055D02*
X12566491Y-14601008D01*
X12566491Y-14601008D02*
X12585539Y-14572436D01*
X12585539Y-14572436D02*
X12595063Y-14562912D01*
X12661729Y-14610531D02*
X12671253Y-14601008D01*
X12671253Y-14601008D02*
X12690301Y-14591484D01*
X12690301Y-14591484D02*
X12737920Y-14591484D01*
X12737920Y-14591484D02*
X12756968Y-14601008D01*
X12756968Y-14601008D02*
X12766491Y-14610531D01*
X12766491Y-14610531D02*
X12776015Y-14629579D01*
X12776015Y-14629579D02*
X12776015Y-14648627D01*
X12776015Y-14648627D02*
X12766491Y-14677198D01*
X12766491Y-14677198D02*
X12652206Y-14791484D01*
X12652206Y-14791484D02*
X12776015Y-14791484D01*
X13014110Y-14791484D02*
X13014110Y-14591484D01*
X13099825Y-14791484D02*
X13099825Y-14686722D01*
X13099825Y-14686722D02*
X13090301Y-14667674D01*
X13090301Y-14667674D02*
X13071253Y-14658150D01*
X13071253Y-14658150D02*
X13042682Y-14658150D01*
X13042682Y-14658150D02*
X13023634Y-14667674D01*
X13023634Y-14667674D02*
X13014110Y-14677198D01*
X13223634Y-14791484D02*
X13204587Y-14781960D01*
X13204587Y-14781960D02*
X13195063Y-14772436D01*
X13195063Y-14772436D02*
X13185539Y-14753388D01*
X13185539Y-14753388D02*
X13185539Y-14696246D01*
X13185539Y-14696246D02*
X13195063Y-14677198D01*
X13195063Y-14677198D02*
X13204587Y-14667674D01*
X13204587Y-14667674D02*
X13223634Y-14658150D01*
X13223634Y-14658150D02*
X13252206Y-14658150D01*
X13252206Y-14658150D02*
X13271253Y-14667674D01*
X13271253Y-14667674D02*
X13280777Y-14677198D01*
X13280777Y-14677198D02*
X13290301Y-14696246D01*
X13290301Y-14696246D02*
X13290301Y-14753388D01*
X13290301Y-14753388D02*
X13280777Y-14772436D01*
X13280777Y-14772436D02*
X13271253Y-14781960D01*
X13271253Y-14781960D02*
X13252206Y-14791484D01*
X13252206Y-14791484D02*
X13223634Y-14791484D01*
X13404587Y-14791484D02*
X13385539Y-14781960D01*
X13385539Y-14781960D02*
X13376015Y-14762912D01*
X13376015Y-14762912D02*
X13376015Y-14591484D01*
X13556968Y-14781960D02*
X13537920Y-14791484D01*
X13537920Y-14791484D02*
X13499825Y-14791484D01*
X13499825Y-14791484D02*
X13480777Y-14781960D01*
X13480777Y-14781960D02*
X13471253Y-14762912D01*
X13471253Y-14762912D02*
X13471253Y-14686722D01*
X13471253Y-14686722D02*
X13480777Y-14667674D01*
X13480777Y-14667674D02*
X13499825Y-14658150D01*
X13499825Y-14658150D02*
X13537920Y-14658150D01*
X13537920Y-14658150D02*
X13556968Y-14667674D01*
X13556968Y-14667674D02*
X13566491Y-14686722D01*
X13566491Y-14686722D02*
X13566491Y-14705769D01*
X13566491Y-14705769D02*
X13471253Y-14724817D01*
X13642682Y-14781960D02*
X13661730Y-14791484D01*
X13661730Y-14791484D02*
X13699825Y-14791484D01*
X13699825Y-14791484D02*
X13718872Y-14781960D01*
X13718872Y-14781960D02*
X13728396Y-14762912D01*
X13728396Y-14762912D02*
X13728396Y-14753388D01*
X13728396Y-14753388D02*
X13718872Y-14734341D01*
X13718872Y-14734341D02*
X13699825Y-14724817D01*
X13699825Y-14724817D02*
X13671253Y-14724817D01*
X13671253Y-14724817D02*
X13652206Y-14715293D01*
X13652206Y-14715293D02*
X13642682Y-14696246D01*
X13642682Y-14696246D02*
X13642682Y-14686722D01*
X13642682Y-14686722D02*
X13652206Y-14667674D01*
X13652206Y-14667674D02*
X13671253Y-14658150D01*
X13671253Y-14658150D02*
X13699825Y-14658150D01*
X13699825Y-14658150D02*
X13718872Y-14667674D01*
X13795063Y-14867674D02*
X13804587Y-14858150D01*
X13804587Y-14858150D02*
X13823634Y-14829579D01*
X13823634Y-14829579D02*
X13833158Y-14810531D01*
X13833158Y-14810531D02*
X13842682Y-14781960D01*
X13842682Y-14781960D02*
X13852206Y-14734341D01*
X13852206Y-14734341D02*
X13852206Y-14696246D01*
X13852206Y-14696246D02*
X13842682Y-14648627D01*
X13842682Y-14648627D02*
X13833158Y-14620055D01*
X13833158Y-14620055D02*
X13823634Y-14601008D01*
X13823634Y-14601008D02*
X13804587Y-14572436D01*
X13804587Y-14572436D02*
X13795063Y-14562912D01*
D10*
X9020000Y-14964000D02*
G75*
G02*
X8931100Y-14964000I-44450J0D01*
G01*
X8931100Y-14964000D02*
G75*
G02*
X9020000Y-14964000I44450J0D01*
G01*
D11*
X9318872Y-14855484D02*
X9337920Y-14855484D01*
X9337920Y-14855484D02*
X9356967Y-14865008D01*
X9356967Y-14865008D02*
X9366491Y-14874531D01*
X9366491Y-14874531D02*
X9376015Y-14893579D01*
X9376015Y-14893579D02*
X9385539Y-14931674D01*
X9385539Y-14931674D02*
X9385539Y-14979293D01*
X9385539Y-14979293D02*
X9376015Y-15017388D01*
X9376015Y-15017388D02*
X9366491Y-15036436D01*
X9366491Y-15036436D02*
X9356967Y-15045960D01*
X9356967Y-15045960D02*
X9337920Y-15055484D01*
X9337920Y-15055484D02*
X9318872Y-15055484D01*
X9318872Y-15055484D02*
X9299824Y-15045960D01*
X9299824Y-15045960D02*
X9290301Y-15036436D01*
X9290301Y-15036436D02*
X9280777Y-15017388D01*
X9280777Y-15017388D02*
X9271253Y-14979293D01*
X9271253Y-14979293D02*
X9271253Y-14931674D01*
X9271253Y-14931674D02*
X9280777Y-14893579D01*
X9280777Y-14893579D02*
X9290301Y-14874531D01*
X9290301Y-14874531D02*
X9299824Y-14865008D01*
X9299824Y-14865008D02*
X9318872Y-14855484D01*
X9471253Y-15036436D02*
X9480777Y-15045960D01*
X9480777Y-15045960D02*
X9471253Y-15055484D01*
X9471253Y-15055484D02*
X9461729Y-15045960D01*
X9461729Y-15045960D02*
X9471253Y-15036436D01*
X9471253Y-15036436D02*
X9471253Y-15055484D01*
X9595063Y-14941198D02*
X9576015Y-14931674D01*
X9576015Y-14931674D02*
X9566491Y-14922150D01*
X9566491Y-14922150D02*
X9556967Y-14903103D01*
X9556967Y-14903103D02*
X9556967Y-14893579D01*
X9556967Y-14893579D02*
X9566491Y-14874531D01*
X9566491Y-14874531D02*
X9576015Y-14865008D01*
X9576015Y-14865008D02*
X9595063Y-14855484D01*
X9595063Y-14855484D02*
X9633158Y-14855484D01*
X9633158Y-14855484D02*
X9652205Y-14865008D01*
X9652205Y-14865008D02*
X9661729Y-14874531D01*
X9661729Y-14874531D02*
X9671253Y-14893579D01*
X9671253Y-14893579D02*
X9671253Y-14903103D01*
X9671253Y-14903103D02*
X9661729Y-14922150D01*
X9661729Y-14922150D02*
X9652205Y-14931674D01*
X9652205Y-14931674D02*
X9633158Y-14941198D01*
X9633158Y-14941198D02*
X9595063Y-14941198D01*
X9595063Y-14941198D02*
X9576015Y-14950722D01*
X9576015Y-14950722D02*
X9566491Y-14960246D01*
X9566491Y-14960246D02*
X9556967Y-14979293D01*
X9556967Y-14979293D02*
X9556967Y-15017388D01*
X9556967Y-15017388D02*
X9566491Y-15036436D01*
X9566491Y-15036436D02*
X9576015Y-15045960D01*
X9576015Y-15045960D02*
X9595063Y-15055484D01*
X9595063Y-15055484D02*
X9633158Y-15055484D01*
X9633158Y-15055484D02*
X9652205Y-15045960D01*
X9652205Y-15045960D02*
X9661729Y-15036436D01*
X9661729Y-15036436D02*
X9671253Y-15017388D01*
X9671253Y-15017388D02*
X9671253Y-14979293D01*
X9671253Y-14979293D02*
X9661729Y-14960246D01*
X9661729Y-14960246D02*
X9652205Y-14950722D01*
X9652205Y-14950722D02*
X9633158Y-14941198D01*
X9785539Y-14941198D02*
X9766491Y-14931674D01*
X9766491Y-14931674D02*
X9756967Y-14922150D01*
X9756967Y-14922150D02*
X9747444Y-14903103D01*
X9747444Y-14903103D02*
X9747444Y-14893579D01*
X9747444Y-14893579D02*
X9756967Y-14874531D01*
X9756967Y-14874531D02*
X9766491Y-14865008D01*
X9766491Y-14865008D02*
X9785539Y-14855484D01*
X9785539Y-14855484D02*
X9823634Y-14855484D01*
X9823634Y-14855484D02*
X9842682Y-14865008D01*
X9842682Y-14865008D02*
X9852205Y-14874531D01*
X9852205Y-14874531D02*
X9861729Y-14893579D01*
X9861729Y-14893579D02*
X9861729Y-14903103D01*
X9861729Y-14903103D02*
X9852205Y-14922150D01*
X9852205Y-14922150D02*
X9842682Y-14931674D01*
X9842682Y-14931674D02*
X9823634Y-14941198D01*
X9823634Y-14941198D02*
X9785539Y-14941198D01*
X9785539Y-14941198D02*
X9766491Y-14950722D01*
X9766491Y-14950722D02*
X9756967Y-14960246D01*
X9756967Y-14960246D02*
X9747444Y-14979293D01*
X9747444Y-14979293D02*
X9747444Y-15017388D01*
X9747444Y-15017388D02*
X9756967Y-15036436D01*
X9756967Y-15036436D02*
X9766491Y-15045960D01*
X9766491Y-15045960D02*
X9785539Y-15055484D01*
X9785539Y-15055484D02*
X9823634Y-15055484D01*
X9823634Y-15055484D02*
X9842682Y-15045960D01*
X9842682Y-15045960D02*
X9852205Y-15036436D01*
X9852205Y-15036436D02*
X9861729Y-15017388D01*
X9861729Y-15017388D02*
X9861729Y-14979293D01*
X9861729Y-14979293D02*
X9852205Y-14960246D01*
X9852205Y-14960246D02*
X9842682Y-14950722D01*
X9842682Y-14950722D02*
X9823634Y-14941198D01*
X9956967Y-15055484D02*
X9995063Y-15055484D01*
X9995063Y-15055484D02*
X10014110Y-15045960D01*
X10014110Y-15045960D02*
X10023634Y-15036436D01*
X10023634Y-15036436D02*
X10042682Y-15007865D01*
X10042682Y-15007865D02*
X10052205Y-14969769D01*
X10052205Y-14969769D02*
X10052205Y-14893579D01*
X10052205Y-14893579D02*
X10042682Y-14874531D01*
X10042682Y-14874531D02*
X10033158Y-14865008D01*
X10033158Y-14865008D02*
X10014110Y-14855484D01*
X10014110Y-14855484D02*
X9976015Y-14855484D01*
X9976015Y-14855484D02*
X9956967Y-14865008D01*
X9956967Y-14865008D02*
X9947444Y-14874531D01*
X9947444Y-14874531D02*
X9937920Y-14893579D01*
X9937920Y-14893579D02*
X9937920Y-14941198D01*
X9937920Y-14941198D02*
X9947444Y-14960246D01*
X9947444Y-14960246D02*
X9956967Y-14969769D01*
X9956967Y-14969769D02*
X9976015Y-14979293D01*
X9976015Y-14979293D02*
X10014110Y-14979293D01*
X10014110Y-14979293D02*
X10033158Y-14969769D01*
X10033158Y-14969769D02*
X10042682Y-14960246D01*
X10042682Y-14960246D02*
X10052205Y-14941198D01*
X10137920Y-15055484D02*
X10137920Y-14922150D01*
X10137920Y-14941198D02*
X10147444Y-14931674D01*
X10147444Y-14931674D02*
X10166491Y-14922150D01*
X10166491Y-14922150D02*
X10195063Y-14922150D01*
X10195063Y-14922150D02*
X10214110Y-14931674D01*
X10214110Y-14931674D02*
X10223634Y-14950722D01*
X10223634Y-14950722D02*
X10223634Y-15055484D01*
X10223634Y-14950722D02*
X10233158Y-14931674D01*
X10233158Y-14931674D02*
X10252205Y-14922150D01*
X10252205Y-14922150D02*
X10280777Y-14922150D01*
X10280777Y-14922150D02*
X10299825Y-14931674D01*
X10299825Y-14931674D02*
X10309348Y-14950722D01*
X10309348Y-14950722D02*
X10309348Y-15055484D01*
X10404586Y-15055484D02*
X10404586Y-14922150D01*
X10404586Y-14941198D02*
X10414110Y-14931674D01*
X10414110Y-14931674D02*
X10433158Y-14922150D01*
X10433158Y-14922150D02*
X10461729Y-14922150D01*
X10461729Y-14922150D02*
X10480777Y-14931674D01*
X10480777Y-14931674D02*
X10490301Y-14950722D01*
X10490301Y-14950722D02*
X10490301Y-15055484D01*
X10490301Y-14950722D02*
X10499825Y-14931674D01*
X10499825Y-14931674D02*
X10518872Y-14922150D01*
X10518872Y-14922150D02*
X10547444Y-14922150D01*
X10547444Y-14922150D02*
X10566491Y-14931674D01*
X10566491Y-14931674D02*
X10576015Y-14950722D01*
X10576015Y-14950722D02*
X10576015Y-15055484D01*
X10966491Y-14845960D02*
X10795063Y-15103103D01*
X11223634Y-14855484D02*
X11242682Y-14855484D01*
X11242682Y-14855484D02*
X11261729Y-14865008D01*
X11261729Y-14865008D02*
X11271253Y-14874531D01*
X11271253Y-14874531D02*
X11280777Y-14893579D01*
X11280777Y-14893579D02*
X11290301Y-14931674D01*
X11290301Y-14931674D02*
X11290301Y-14979293D01*
X11290301Y-14979293D02*
X11280777Y-15017388D01*
X11280777Y-15017388D02*
X11271253Y-15036436D01*
X11271253Y-15036436D02*
X11261729Y-15045960D01*
X11261729Y-15045960D02*
X11242682Y-15055484D01*
X11242682Y-15055484D02*
X11223634Y-15055484D01*
X11223634Y-15055484D02*
X11204586Y-15045960D01*
X11204586Y-15045960D02*
X11195063Y-15036436D01*
X11195063Y-15036436D02*
X11185539Y-15017388D01*
X11185539Y-15017388D02*
X11176015Y-14979293D01*
X11176015Y-14979293D02*
X11176015Y-14931674D01*
X11176015Y-14931674D02*
X11185539Y-14893579D01*
X11185539Y-14893579D02*
X11195063Y-14874531D01*
X11195063Y-14874531D02*
X11204586Y-14865008D01*
X11204586Y-14865008D02*
X11223634Y-14855484D01*
X11376015Y-15036436D02*
X11385539Y-15045960D01*
X11385539Y-15045960D02*
X11376015Y-15055484D01*
X11376015Y-15055484D02*
X11366491Y-15045960D01*
X11366491Y-15045960D02*
X11376015Y-15036436D01*
X11376015Y-15036436D02*
X11376015Y-15055484D01*
X11509348Y-14855484D02*
X11528396Y-14855484D01*
X11528396Y-14855484D02*
X11547444Y-14865008D01*
X11547444Y-14865008D02*
X11556967Y-14874531D01*
X11556967Y-14874531D02*
X11566491Y-14893579D01*
X11566491Y-14893579D02*
X11576015Y-14931674D01*
X11576015Y-14931674D02*
X11576015Y-14979293D01*
X11576015Y-14979293D02*
X11566491Y-15017388D01*
X11566491Y-15017388D02*
X11556967Y-15036436D01*
X11556967Y-15036436D02*
X11547444Y-15045960D01*
X11547444Y-15045960D02*
X11528396Y-15055484D01*
X11528396Y-15055484D02*
X11509348Y-15055484D01*
X11509348Y-15055484D02*
X11490301Y-15045960D01*
X11490301Y-15045960D02*
X11480777Y-15036436D01*
X11480777Y-15036436D02*
X11471253Y-15017388D01*
X11471253Y-15017388D02*
X11461729Y-14979293D01*
X11461729Y-14979293D02*
X11461729Y-14931674D01*
X11461729Y-14931674D02*
X11471253Y-14893579D01*
X11471253Y-14893579D02*
X11480777Y-14874531D01*
X11480777Y-14874531D02*
X11490301Y-14865008D01*
X11490301Y-14865008D02*
X11509348Y-14855484D01*
X11642682Y-14855484D02*
X11766491Y-14855484D01*
X11766491Y-14855484D02*
X11699825Y-14931674D01*
X11699825Y-14931674D02*
X11728396Y-14931674D01*
X11728396Y-14931674D02*
X11747444Y-14941198D01*
X11747444Y-14941198D02*
X11756967Y-14950722D01*
X11756967Y-14950722D02*
X11766491Y-14969769D01*
X11766491Y-14969769D02*
X11766491Y-15017388D01*
X11766491Y-15017388D02*
X11756967Y-15036436D01*
X11756967Y-15036436D02*
X11747444Y-15045960D01*
X11747444Y-15045960D02*
X11728396Y-15055484D01*
X11728396Y-15055484D02*
X11671253Y-15055484D01*
X11671253Y-15055484D02*
X11652206Y-15045960D01*
X11652206Y-15045960D02*
X11642682Y-15036436D01*
X11947444Y-14855484D02*
X11852206Y-14855484D01*
X11852206Y-14855484D02*
X11842682Y-14950722D01*
X11842682Y-14950722D02*
X11852206Y-14941198D01*
X11852206Y-14941198D02*
X11871253Y-14931674D01*
X11871253Y-14931674D02*
X11918872Y-14931674D01*
X11918872Y-14931674D02*
X11937920Y-14941198D01*
X11937920Y-14941198D02*
X11947444Y-14950722D01*
X11947444Y-14950722D02*
X11956967Y-14969769D01*
X11956967Y-14969769D02*
X11956967Y-15017388D01*
X11956967Y-15017388D02*
X11947444Y-15036436D01*
X11947444Y-15036436D02*
X11937920Y-15045960D01*
X11937920Y-15045960D02*
X11918872Y-15055484D01*
X11918872Y-15055484D02*
X11871253Y-15055484D01*
X11871253Y-15055484D02*
X11852206Y-15045960D01*
X11852206Y-15045960D02*
X11842682Y-15036436D01*
X12080777Y-14855484D02*
X12099825Y-14855484D01*
X12099825Y-14855484D02*
X12118872Y-14865008D01*
X12118872Y-14865008D02*
X12128396Y-14874531D01*
X12128396Y-14874531D02*
X12137920Y-14893579D01*
X12137920Y-14893579D02*
X12147444Y-14931674D01*
X12147444Y-14931674D02*
X12147444Y-14979293D01*
X12147444Y-14979293D02*
X12137920Y-15017388D01*
X12137920Y-15017388D02*
X12128396Y-15036436D01*
X12128396Y-15036436D02*
X12118872Y-15045960D01*
X12118872Y-15045960D02*
X12099825Y-15055484D01*
X12099825Y-15055484D02*
X12080777Y-15055484D01*
X12080777Y-15055484D02*
X12061729Y-15045960D01*
X12061729Y-15045960D02*
X12052206Y-15036436D01*
X12052206Y-15036436D02*
X12042682Y-15017388D01*
X12042682Y-15017388D02*
X12033158Y-14979293D01*
X12033158Y-14979293D02*
X12033158Y-14931674D01*
X12033158Y-14931674D02*
X12042682Y-14893579D01*
X12042682Y-14893579D02*
X12052206Y-14874531D01*
X12052206Y-14874531D02*
X12061729Y-14865008D01*
X12061729Y-14865008D02*
X12080777Y-14855484D01*
X12223634Y-14855484D02*
X12223634Y-14893579D01*
X12299825Y-14855484D02*
X12299825Y-14893579D01*
X12595063Y-15131674D02*
X12585539Y-15122150D01*
X12585539Y-15122150D02*
X12566491Y-15093579D01*
X12566491Y-15093579D02*
X12556968Y-15074531D01*
X12556968Y-15074531D02*
X12547444Y-15045960D01*
X12547444Y-15045960D02*
X12537920Y-14998341D01*
X12537920Y-14998341D02*
X12537920Y-14960246D01*
X12537920Y-14960246D02*
X12547444Y-14912627D01*
X12547444Y-14912627D02*
X12556968Y-14884055D01*
X12556968Y-14884055D02*
X12566491Y-14865008D01*
X12566491Y-14865008D02*
X12585539Y-14836436D01*
X12585539Y-14836436D02*
X12595063Y-14826912D01*
X12776015Y-15055484D02*
X12661729Y-15055484D01*
X12718872Y-15055484D02*
X12718872Y-14855484D01*
X12718872Y-14855484D02*
X12699825Y-14884055D01*
X12699825Y-14884055D02*
X12680777Y-14903103D01*
X12680777Y-14903103D02*
X12661729Y-14912627D01*
X12947444Y-14922150D02*
X12947444Y-15055484D01*
X12899825Y-14845960D02*
X12852206Y-14988817D01*
X12852206Y-14988817D02*
X12976015Y-14988817D01*
X13204587Y-15055484D02*
X13204587Y-14855484D01*
X13290301Y-15055484D02*
X13290301Y-14950722D01*
X13290301Y-14950722D02*
X13280777Y-14931674D01*
X13280777Y-14931674D02*
X13261730Y-14922150D01*
X13261730Y-14922150D02*
X13233158Y-14922150D01*
X13233158Y-14922150D02*
X13214110Y-14931674D01*
X13214110Y-14931674D02*
X13204587Y-14941198D01*
X13414110Y-15055484D02*
X13395063Y-15045960D01*
X13395063Y-15045960D02*
X13385539Y-15036436D01*
X13385539Y-15036436D02*
X13376015Y-15017388D01*
X13376015Y-15017388D02*
X13376015Y-14960246D01*
X13376015Y-14960246D02*
X13385539Y-14941198D01*
X13385539Y-14941198D02*
X13395063Y-14931674D01*
X13395063Y-14931674D02*
X13414110Y-14922150D01*
X13414110Y-14922150D02*
X13442682Y-14922150D01*
X13442682Y-14922150D02*
X13461730Y-14931674D01*
X13461730Y-14931674D02*
X13471253Y-14941198D01*
X13471253Y-14941198D02*
X13480777Y-14960246D01*
X13480777Y-14960246D02*
X13480777Y-15017388D01*
X13480777Y-15017388D02*
X13471253Y-15036436D01*
X13471253Y-15036436D02*
X13461730Y-15045960D01*
X13461730Y-15045960D02*
X13442682Y-15055484D01*
X13442682Y-15055484D02*
X13414110Y-15055484D01*
X13595063Y-15055484D02*
X13576015Y-15045960D01*
X13576015Y-15045960D02*
X13566491Y-15026912D01*
X13566491Y-15026912D02*
X13566491Y-14855484D01*
X13747444Y-15045960D02*
X13728396Y-15055484D01*
X13728396Y-15055484D02*
X13690301Y-15055484D01*
X13690301Y-15055484D02*
X13671253Y-15045960D01*
X13671253Y-15045960D02*
X13661730Y-15026912D01*
X13661730Y-15026912D02*
X13661730Y-14950722D01*
X13661730Y-14950722D02*
X13671253Y-14931674D01*
X13671253Y-14931674D02*
X13690301Y-14922150D01*
X13690301Y-14922150D02*
X13728396Y-14922150D01*
X13728396Y-14922150D02*
X13747444Y-14931674D01*
X13747444Y-14931674D02*
X13756968Y-14950722D01*
X13756968Y-14950722D02*
X13756968Y-14969769D01*
X13756968Y-14969769D02*
X13661730Y-14988817D01*
X13833158Y-15045960D02*
X13852206Y-15055484D01*
X13852206Y-15055484D02*
X13890301Y-15055484D01*
X13890301Y-15055484D02*
X13909349Y-15045960D01*
X13909349Y-15045960D02*
X13918872Y-15026912D01*
X13918872Y-15026912D02*
X13918872Y-15017388D01*
X13918872Y-15017388D02*
X13909349Y-14998341D01*
X13909349Y-14998341D02*
X13890301Y-14988817D01*
X13890301Y-14988817D02*
X13861730Y-14988817D01*
X13861730Y-14988817D02*
X13842682Y-14979293D01*
X13842682Y-14979293D02*
X13833158Y-14960246D01*
X13833158Y-14960246D02*
X13833158Y-14950722D01*
X13833158Y-14950722D02*
X13842682Y-14931674D01*
X13842682Y-14931674D02*
X13861730Y-14922150D01*
X13861730Y-14922150D02*
X13890301Y-14922150D01*
X13890301Y-14922150D02*
X13909349Y-14931674D01*
X13985539Y-15131674D02*
X13995063Y-15122150D01*
X13995063Y-15122150D02*
X14014111Y-15093579D01*
X14014111Y-15093579D02*
X14023634Y-15074531D01*
X14023634Y-15074531D02*
X14033158Y-15045960D01*
X14033158Y-15045960D02*
X14042682Y-14998341D01*
X14042682Y-14998341D02*
X14042682Y-14960246D01*
X14042682Y-14960246D02*
X14033158Y-14912627D01*
X14033158Y-14912627D02*
X14023634Y-14884055D01*
X14023634Y-14884055D02*
X14014111Y-14865008D01*
X14014111Y-14865008D02*
X13995063Y-14836436D01*
X13995063Y-14836436D02*
X13985539Y-14826912D01*
D10*
X8970000Y-15178000D02*
X8970000Y-15278000D01*
X8920000Y-15228000D02*
X9020000Y-15228000D01*
D11*
X9385539Y-15319484D02*
X9271253Y-15319484D01*
X9328396Y-15319484D02*
X9328396Y-15119484D01*
X9328396Y-15119484D02*
X9309348Y-15148055D01*
X9309348Y-15148055D02*
X9290301Y-15167103D01*
X9290301Y-15167103D02*
X9271253Y-15176627D01*
X9471253Y-15300436D02*
X9480777Y-15309960D01*
X9480777Y-15309960D02*
X9471253Y-15319484D01*
X9471253Y-15319484D02*
X9461729Y-15309960D01*
X9461729Y-15309960D02*
X9471253Y-15300436D01*
X9471253Y-15300436D02*
X9471253Y-15319484D01*
X9604586Y-15119484D02*
X9623634Y-15119484D01*
X9623634Y-15119484D02*
X9642682Y-15129008D01*
X9642682Y-15129008D02*
X9652205Y-15138531D01*
X9652205Y-15138531D02*
X9661729Y-15157579D01*
X9661729Y-15157579D02*
X9671253Y-15195674D01*
X9671253Y-15195674D02*
X9671253Y-15243293D01*
X9671253Y-15243293D02*
X9661729Y-15281388D01*
X9661729Y-15281388D02*
X9652205Y-15300436D01*
X9652205Y-15300436D02*
X9642682Y-15309960D01*
X9642682Y-15309960D02*
X9623634Y-15319484D01*
X9623634Y-15319484D02*
X9604586Y-15319484D01*
X9604586Y-15319484D02*
X9585539Y-15309960D01*
X9585539Y-15309960D02*
X9576015Y-15300436D01*
X9576015Y-15300436D02*
X9566491Y-15281388D01*
X9566491Y-15281388D02*
X9556967Y-15243293D01*
X9556967Y-15243293D02*
X9556967Y-15195674D01*
X9556967Y-15195674D02*
X9566491Y-15157579D01*
X9566491Y-15157579D02*
X9576015Y-15138531D01*
X9576015Y-15138531D02*
X9585539Y-15129008D01*
X9585539Y-15129008D02*
X9604586Y-15119484D01*
X9795063Y-15119484D02*
X9814110Y-15119484D01*
X9814110Y-15119484D02*
X9833158Y-15129008D01*
X9833158Y-15129008D02*
X9842682Y-15138531D01*
X9842682Y-15138531D02*
X9852205Y-15157579D01*
X9852205Y-15157579D02*
X9861729Y-15195674D01*
X9861729Y-15195674D02*
X9861729Y-15243293D01*
X9861729Y-15243293D02*
X9852205Y-15281388D01*
X9852205Y-15281388D02*
X9842682Y-15300436D01*
X9842682Y-15300436D02*
X9833158Y-15309960D01*
X9833158Y-15309960D02*
X9814110Y-15319484D01*
X9814110Y-15319484D02*
X9795063Y-15319484D01*
X9795063Y-15319484D02*
X9776015Y-15309960D01*
X9776015Y-15309960D02*
X9766491Y-15300436D01*
X9766491Y-15300436D02*
X9756967Y-15281388D01*
X9756967Y-15281388D02*
X9747444Y-15243293D01*
X9747444Y-15243293D02*
X9747444Y-15195674D01*
X9747444Y-15195674D02*
X9756967Y-15157579D01*
X9756967Y-15157579D02*
X9766491Y-15138531D01*
X9766491Y-15138531D02*
X9776015Y-15129008D01*
X9776015Y-15129008D02*
X9795063Y-15119484D01*
X9985539Y-15119484D02*
X10004586Y-15119484D01*
X10004586Y-15119484D02*
X10023634Y-15129008D01*
X10023634Y-15129008D02*
X10033158Y-15138531D01*
X10033158Y-15138531D02*
X10042682Y-15157579D01*
X10042682Y-15157579D02*
X10052205Y-15195674D01*
X10052205Y-15195674D02*
X10052205Y-15243293D01*
X10052205Y-15243293D02*
X10042682Y-15281388D01*
X10042682Y-15281388D02*
X10033158Y-15300436D01*
X10033158Y-15300436D02*
X10023634Y-15309960D01*
X10023634Y-15309960D02*
X10004586Y-15319484D01*
X10004586Y-15319484D02*
X9985539Y-15319484D01*
X9985539Y-15319484D02*
X9966491Y-15309960D01*
X9966491Y-15309960D02*
X9956967Y-15300436D01*
X9956967Y-15300436D02*
X9947444Y-15281388D01*
X9947444Y-15281388D02*
X9937920Y-15243293D01*
X9937920Y-15243293D02*
X9937920Y-15195674D01*
X9937920Y-15195674D02*
X9947444Y-15157579D01*
X9947444Y-15157579D02*
X9956967Y-15138531D01*
X9956967Y-15138531D02*
X9966491Y-15129008D01*
X9966491Y-15129008D02*
X9985539Y-15119484D01*
X10137920Y-15319484D02*
X10137920Y-15186150D01*
X10137920Y-15205198D02*
X10147444Y-15195674D01*
X10147444Y-15195674D02*
X10166491Y-15186150D01*
X10166491Y-15186150D02*
X10195063Y-15186150D01*
X10195063Y-15186150D02*
X10214110Y-15195674D01*
X10214110Y-15195674D02*
X10223634Y-15214722D01*
X10223634Y-15214722D02*
X10223634Y-15319484D01*
X10223634Y-15214722D02*
X10233158Y-15195674D01*
X10233158Y-15195674D02*
X10252205Y-15186150D01*
X10252205Y-15186150D02*
X10280777Y-15186150D01*
X10280777Y-15186150D02*
X10299825Y-15195674D01*
X10299825Y-15195674D02*
X10309348Y-15214722D01*
X10309348Y-15214722D02*
X10309348Y-15319484D01*
X10404586Y-15319484D02*
X10404586Y-15186150D01*
X10404586Y-15205198D02*
X10414110Y-15195674D01*
X10414110Y-15195674D02*
X10433158Y-15186150D01*
X10433158Y-15186150D02*
X10461729Y-15186150D01*
X10461729Y-15186150D02*
X10480777Y-15195674D01*
X10480777Y-15195674D02*
X10490301Y-15214722D01*
X10490301Y-15214722D02*
X10490301Y-15319484D01*
X10490301Y-15214722D02*
X10499825Y-15195674D01*
X10499825Y-15195674D02*
X10518872Y-15186150D01*
X10518872Y-15186150D02*
X10547444Y-15186150D01*
X10547444Y-15186150D02*
X10566491Y-15195674D01*
X10566491Y-15195674D02*
X10576015Y-15214722D01*
X10576015Y-15214722D02*
X10576015Y-15319484D01*
X10966491Y-15109960D02*
X10795063Y-15367103D01*
X11223634Y-15119484D02*
X11242682Y-15119484D01*
X11242682Y-15119484D02*
X11261729Y-15129008D01*
X11261729Y-15129008D02*
X11271253Y-15138531D01*
X11271253Y-15138531D02*
X11280777Y-15157579D01*
X11280777Y-15157579D02*
X11290301Y-15195674D01*
X11290301Y-15195674D02*
X11290301Y-15243293D01*
X11290301Y-15243293D02*
X11280777Y-15281388D01*
X11280777Y-15281388D02*
X11271253Y-15300436D01*
X11271253Y-15300436D02*
X11261729Y-15309960D01*
X11261729Y-15309960D02*
X11242682Y-15319484D01*
X11242682Y-15319484D02*
X11223634Y-15319484D01*
X11223634Y-15319484D02*
X11204586Y-15309960D01*
X11204586Y-15309960D02*
X11195063Y-15300436D01*
X11195063Y-15300436D02*
X11185539Y-15281388D01*
X11185539Y-15281388D02*
X11176015Y-15243293D01*
X11176015Y-15243293D02*
X11176015Y-15195674D01*
X11176015Y-15195674D02*
X11185539Y-15157579D01*
X11185539Y-15157579D02*
X11195063Y-15138531D01*
X11195063Y-15138531D02*
X11204586Y-15129008D01*
X11204586Y-15129008D02*
X11223634Y-15119484D01*
X11376015Y-15300436D02*
X11385539Y-15309960D01*
X11385539Y-15309960D02*
X11376015Y-15319484D01*
X11376015Y-15319484D02*
X11366491Y-15309960D01*
X11366491Y-15309960D02*
X11376015Y-15300436D01*
X11376015Y-15300436D02*
X11376015Y-15319484D01*
X11509348Y-15119484D02*
X11528396Y-15119484D01*
X11528396Y-15119484D02*
X11547444Y-15129008D01*
X11547444Y-15129008D02*
X11556967Y-15138531D01*
X11556967Y-15138531D02*
X11566491Y-15157579D01*
X11566491Y-15157579D02*
X11576015Y-15195674D01*
X11576015Y-15195674D02*
X11576015Y-15243293D01*
X11576015Y-15243293D02*
X11566491Y-15281388D01*
X11566491Y-15281388D02*
X11556967Y-15300436D01*
X11556967Y-15300436D02*
X11547444Y-15309960D01*
X11547444Y-15309960D02*
X11528396Y-15319484D01*
X11528396Y-15319484D02*
X11509348Y-15319484D01*
X11509348Y-15319484D02*
X11490301Y-15309960D01*
X11490301Y-15309960D02*
X11480777Y-15300436D01*
X11480777Y-15300436D02*
X11471253Y-15281388D01*
X11471253Y-15281388D02*
X11461729Y-15243293D01*
X11461729Y-15243293D02*
X11461729Y-15195674D01*
X11461729Y-15195674D02*
X11471253Y-15157579D01*
X11471253Y-15157579D02*
X11480777Y-15138531D01*
X11480777Y-15138531D02*
X11490301Y-15129008D01*
X11490301Y-15129008D02*
X11509348Y-15119484D01*
X11642682Y-15119484D02*
X11766491Y-15119484D01*
X11766491Y-15119484D02*
X11699825Y-15195674D01*
X11699825Y-15195674D02*
X11728396Y-15195674D01*
X11728396Y-15195674D02*
X11747444Y-15205198D01*
X11747444Y-15205198D02*
X11756967Y-15214722D01*
X11756967Y-15214722D02*
X11766491Y-15233769D01*
X11766491Y-15233769D02*
X11766491Y-15281388D01*
X11766491Y-15281388D02*
X11756967Y-15300436D01*
X11756967Y-15300436D02*
X11747444Y-15309960D01*
X11747444Y-15309960D02*
X11728396Y-15319484D01*
X11728396Y-15319484D02*
X11671253Y-15319484D01*
X11671253Y-15319484D02*
X11652206Y-15309960D01*
X11652206Y-15309960D02*
X11642682Y-15300436D01*
X11861729Y-15319484D02*
X11899825Y-15319484D01*
X11899825Y-15319484D02*
X11918872Y-15309960D01*
X11918872Y-15309960D02*
X11928396Y-15300436D01*
X11928396Y-15300436D02*
X11947444Y-15271865D01*
X11947444Y-15271865D02*
X11956967Y-15233769D01*
X11956967Y-15233769D02*
X11956967Y-15157579D01*
X11956967Y-15157579D02*
X11947444Y-15138531D01*
X11947444Y-15138531D02*
X11937920Y-15129008D01*
X11937920Y-15129008D02*
X11918872Y-15119484D01*
X11918872Y-15119484D02*
X11880777Y-15119484D01*
X11880777Y-15119484D02*
X11861729Y-15129008D01*
X11861729Y-15129008D02*
X11852206Y-15138531D01*
X11852206Y-15138531D02*
X11842682Y-15157579D01*
X11842682Y-15157579D02*
X11842682Y-15205198D01*
X11842682Y-15205198D02*
X11852206Y-15224246D01*
X11852206Y-15224246D02*
X11861729Y-15233769D01*
X11861729Y-15233769D02*
X11880777Y-15243293D01*
X11880777Y-15243293D02*
X11918872Y-15243293D01*
X11918872Y-15243293D02*
X11937920Y-15233769D01*
X11937920Y-15233769D02*
X11947444Y-15224246D01*
X11947444Y-15224246D02*
X11956967Y-15205198D01*
X12128396Y-15186150D02*
X12128396Y-15319484D01*
X12080777Y-15109960D02*
X12033158Y-15252817D01*
X12033158Y-15252817D02*
X12156967Y-15252817D01*
X12223634Y-15119484D02*
X12223634Y-15157579D01*
X12299825Y-15119484D02*
X12299825Y-15157579D01*
X12595063Y-15395674D02*
X12585539Y-15386150D01*
X12585539Y-15386150D02*
X12566491Y-15357579D01*
X12566491Y-15357579D02*
X12556968Y-15338531D01*
X12556968Y-15338531D02*
X12547444Y-15309960D01*
X12547444Y-15309960D02*
X12537920Y-15262341D01*
X12537920Y-15262341D02*
X12537920Y-15224246D01*
X12537920Y-15224246D02*
X12547444Y-15176627D01*
X12547444Y-15176627D02*
X12556968Y-15148055D01*
X12556968Y-15148055D02*
X12566491Y-15129008D01*
X12566491Y-15129008D02*
X12585539Y-15100436D01*
X12585539Y-15100436D02*
X12595063Y-15090912D01*
X12776015Y-15319484D02*
X12661729Y-15319484D01*
X12718872Y-15319484D02*
X12718872Y-15119484D01*
X12718872Y-15119484D02*
X12699825Y-15148055D01*
X12699825Y-15148055D02*
X12680777Y-15167103D01*
X12680777Y-15167103D02*
X12661729Y-15176627D01*
X12842682Y-15119484D02*
X12966491Y-15119484D01*
X12966491Y-15119484D02*
X12899825Y-15195674D01*
X12899825Y-15195674D02*
X12928396Y-15195674D01*
X12928396Y-15195674D02*
X12947444Y-15205198D01*
X12947444Y-15205198D02*
X12956968Y-15214722D01*
X12956968Y-15214722D02*
X12966491Y-15233769D01*
X12966491Y-15233769D02*
X12966491Y-15281388D01*
X12966491Y-15281388D02*
X12956968Y-15300436D01*
X12956968Y-15300436D02*
X12947444Y-15309960D01*
X12947444Y-15309960D02*
X12928396Y-15319484D01*
X12928396Y-15319484D02*
X12871253Y-15319484D01*
X12871253Y-15319484D02*
X12852206Y-15309960D01*
X12852206Y-15309960D02*
X12842682Y-15300436D01*
X13204587Y-15319484D02*
X13204587Y-15119484D01*
X13290301Y-15319484D02*
X13290301Y-15214722D01*
X13290301Y-15214722D02*
X13280777Y-15195674D01*
X13280777Y-15195674D02*
X13261730Y-15186150D01*
X13261730Y-15186150D02*
X13233158Y-15186150D01*
X13233158Y-15186150D02*
X13214110Y-15195674D01*
X13214110Y-15195674D02*
X13204587Y-15205198D01*
X13414110Y-15319484D02*
X13395063Y-15309960D01*
X13395063Y-15309960D02*
X13385539Y-15300436D01*
X13385539Y-15300436D02*
X13376015Y-15281388D01*
X13376015Y-15281388D02*
X13376015Y-15224246D01*
X13376015Y-15224246D02*
X13385539Y-15205198D01*
X13385539Y-15205198D02*
X13395063Y-15195674D01*
X13395063Y-15195674D02*
X13414110Y-15186150D01*
X13414110Y-15186150D02*
X13442682Y-15186150D01*
X13442682Y-15186150D02*
X13461730Y-15195674D01*
X13461730Y-15195674D02*
X13471253Y-15205198D01*
X13471253Y-15205198D02*
X13480777Y-15224246D01*
X13480777Y-15224246D02*
X13480777Y-15281388D01*
X13480777Y-15281388D02*
X13471253Y-15300436D01*
X13471253Y-15300436D02*
X13461730Y-15309960D01*
X13461730Y-15309960D02*
X13442682Y-15319484D01*
X13442682Y-15319484D02*
X13414110Y-15319484D01*
X13595063Y-15319484D02*
X13576015Y-15309960D01*
X13576015Y-15309960D02*
X13566491Y-15290912D01*
X13566491Y-15290912D02*
X13566491Y-15119484D01*
X13747444Y-15309960D02*
X13728396Y-15319484D01*
X13728396Y-15319484D02*
X13690301Y-15319484D01*
X13690301Y-15319484D02*
X13671253Y-15309960D01*
X13671253Y-15309960D02*
X13661730Y-15290912D01*
X13661730Y-15290912D02*
X13661730Y-15214722D01*
X13661730Y-15214722D02*
X13671253Y-15195674D01*
X13671253Y-15195674D02*
X13690301Y-15186150D01*
X13690301Y-15186150D02*
X13728396Y-15186150D01*
X13728396Y-15186150D02*
X13747444Y-15195674D01*
X13747444Y-15195674D02*
X13756968Y-15214722D01*
X13756968Y-15214722D02*
X13756968Y-15233769D01*
X13756968Y-15233769D02*
X13661730Y-15252817D01*
X13833158Y-15309960D02*
X13852206Y-15319484D01*
X13852206Y-15319484D02*
X13890301Y-15319484D01*
X13890301Y-15319484D02*
X13909349Y-15309960D01*
X13909349Y-15309960D02*
X13918872Y-15290912D01*
X13918872Y-15290912D02*
X13918872Y-15281388D01*
X13918872Y-15281388D02*
X13909349Y-15262341D01*
X13909349Y-15262341D02*
X13890301Y-15252817D01*
X13890301Y-15252817D02*
X13861730Y-15252817D01*
X13861730Y-15252817D02*
X13842682Y-15243293D01*
X13842682Y-15243293D02*
X13833158Y-15224246D01*
X13833158Y-15224246D02*
X13833158Y-15214722D01*
X13833158Y-15214722D02*
X13842682Y-15195674D01*
X13842682Y-15195674D02*
X13861730Y-15186150D01*
X13861730Y-15186150D02*
X13890301Y-15186150D01*
X13890301Y-15186150D02*
X13909349Y-15195674D01*
X13985539Y-15395674D02*
X13995063Y-15386150D01*
X13995063Y-15386150D02*
X14014111Y-15357579D01*
X14014111Y-15357579D02*
X14023634Y-15338531D01*
X14023634Y-15338531D02*
X14033158Y-15309960D01*
X14033158Y-15309960D02*
X14042682Y-15262341D01*
X14042682Y-15262341D02*
X14042682Y-15224246D01*
X14042682Y-15224246D02*
X14033158Y-15176627D01*
X14033158Y-15176627D02*
X14023634Y-15148055D01*
X14023634Y-15148055D02*
X14014111Y-15129008D01*
X14014111Y-15129008D02*
X13995063Y-15100436D01*
X13995063Y-15100436D02*
X13985539Y-15090912D01*
D12*
X8998034Y-15545033D02*
X8998034Y-15438966D01*
X8891967Y-15438966D01*
X8891967Y-15545033D01*
X8998034Y-15545033D01*
D11*
X9385539Y-15583484D02*
X9271253Y-15583484D01*
X9328396Y-15583484D02*
X9328396Y-15383484D01*
X9328396Y-15383484D02*
X9309348Y-15412055D01*
X9309348Y-15412055D02*
X9290301Y-15431103D01*
X9290301Y-15431103D02*
X9271253Y-15440627D01*
X9471253Y-15564436D02*
X9480777Y-15573960D01*
X9480777Y-15573960D02*
X9471253Y-15583484D01*
X9471253Y-15583484D02*
X9461729Y-15573960D01*
X9461729Y-15573960D02*
X9471253Y-15564436D01*
X9471253Y-15564436D02*
X9471253Y-15583484D01*
X9661729Y-15383484D02*
X9566491Y-15383484D01*
X9566491Y-15383484D02*
X9556967Y-15478722D01*
X9556967Y-15478722D02*
X9566491Y-15469198D01*
X9566491Y-15469198D02*
X9585539Y-15459674D01*
X9585539Y-15459674D02*
X9633158Y-15459674D01*
X9633158Y-15459674D02*
X9652205Y-15469198D01*
X9652205Y-15469198D02*
X9661729Y-15478722D01*
X9661729Y-15478722D02*
X9671253Y-15497769D01*
X9671253Y-15497769D02*
X9671253Y-15545388D01*
X9671253Y-15545388D02*
X9661729Y-15564436D01*
X9661729Y-15564436D02*
X9652205Y-15573960D01*
X9652205Y-15573960D02*
X9633158Y-15583484D01*
X9633158Y-15583484D02*
X9585539Y-15583484D01*
X9585539Y-15583484D02*
X9566491Y-15573960D01*
X9566491Y-15573960D02*
X9556967Y-15564436D01*
X9795063Y-15383484D02*
X9814110Y-15383484D01*
X9814110Y-15383484D02*
X9833158Y-15393008D01*
X9833158Y-15393008D02*
X9842682Y-15402531D01*
X9842682Y-15402531D02*
X9852205Y-15421579D01*
X9852205Y-15421579D02*
X9861729Y-15459674D01*
X9861729Y-15459674D02*
X9861729Y-15507293D01*
X9861729Y-15507293D02*
X9852205Y-15545388D01*
X9852205Y-15545388D02*
X9842682Y-15564436D01*
X9842682Y-15564436D02*
X9833158Y-15573960D01*
X9833158Y-15573960D02*
X9814110Y-15583484D01*
X9814110Y-15583484D02*
X9795063Y-15583484D01*
X9795063Y-15583484D02*
X9776015Y-15573960D01*
X9776015Y-15573960D02*
X9766491Y-15564436D01*
X9766491Y-15564436D02*
X9756967Y-15545388D01*
X9756967Y-15545388D02*
X9747444Y-15507293D01*
X9747444Y-15507293D02*
X9747444Y-15459674D01*
X9747444Y-15459674D02*
X9756967Y-15421579D01*
X9756967Y-15421579D02*
X9766491Y-15402531D01*
X9766491Y-15402531D02*
X9776015Y-15393008D01*
X9776015Y-15393008D02*
X9795063Y-15383484D01*
X9985539Y-15383484D02*
X10004586Y-15383484D01*
X10004586Y-15383484D02*
X10023634Y-15393008D01*
X10023634Y-15393008D02*
X10033158Y-15402531D01*
X10033158Y-15402531D02*
X10042682Y-15421579D01*
X10042682Y-15421579D02*
X10052205Y-15459674D01*
X10052205Y-15459674D02*
X10052205Y-15507293D01*
X10052205Y-15507293D02*
X10042682Y-15545388D01*
X10042682Y-15545388D02*
X10033158Y-15564436D01*
X10033158Y-15564436D02*
X10023634Y-15573960D01*
X10023634Y-15573960D02*
X10004586Y-15583484D01*
X10004586Y-15583484D02*
X9985539Y-15583484D01*
X9985539Y-15583484D02*
X9966491Y-15573960D01*
X9966491Y-15573960D02*
X9956967Y-15564436D01*
X9956967Y-15564436D02*
X9947444Y-15545388D01*
X9947444Y-15545388D02*
X9937920Y-15507293D01*
X9937920Y-15507293D02*
X9937920Y-15459674D01*
X9937920Y-15459674D02*
X9947444Y-15421579D01*
X9947444Y-15421579D02*
X9956967Y-15402531D01*
X9956967Y-15402531D02*
X9966491Y-15393008D01*
X9966491Y-15393008D02*
X9985539Y-15383484D01*
X10137920Y-15583484D02*
X10137920Y-15450150D01*
X10137920Y-15469198D02*
X10147444Y-15459674D01*
X10147444Y-15459674D02*
X10166491Y-15450150D01*
X10166491Y-15450150D02*
X10195063Y-15450150D01*
X10195063Y-15450150D02*
X10214110Y-15459674D01*
X10214110Y-15459674D02*
X10223634Y-15478722D01*
X10223634Y-15478722D02*
X10223634Y-15583484D01*
X10223634Y-15478722D02*
X10233158Y-15459674D01*
X10233158Y-15459674D02*
X10252205Y-15450150D01*
X10252205Y-15450150D02*
X10280777Y-15450150D01*
X10280777Y-15450150D02*
X10299825Y-15459674D01*
X10299825Y-15459674D02*
X10309348Y-15478722D01*
X10309348Y-15478722D02*
X10309348Y-15583484D01*
X10404586Y-15583484D02*
X10404586Y-15450150D01*
X10404586Y-15469198D02*
X10414110Y-15459674D01*
X10414110Y-15459674D02*
X10433158Y-15450150D01*
X10433158Y-15450150D02*
X10461729Y-15450150D01*
X10461729Y-15450150D02*
X10480777Y-15459674D01*
X10480777Y-15459674D02*
X10490301Y-15478722D01*
X10490301Y-15478722D02*
X10490301Y-15583484D01*
X10490301Y-15478722D02*
X10499825Y-15459674D01*
X10499825Y-15459674D02*
X10518872Y-15450150D01*
X10518872Y-15450150D02*
X10547444Y-15450150D01*
X10547444Y-15450150D02*
X10566491Y-15459674D01*
X10566491Y-15459674D02*
X10576015Y-15478722D01*
X10576015Y-15478722D02*
X10576015Y-15583484D01*
X10966491Y-15373960D02*
X10795063Y-15631103D01*
X11223634Y-15383484D02*
X11242682Y-15383484D01*
X11242682Y-15383484D02*
X11261729Y-15393008D01*
X11261729Y-15393008D02*
X11271253Y-15402531D01*
X11271253Y-15402531D02*
X11280777Y-15421579D01*
X11280777Y-15421579D02*
X11290301Y-15459674D01*
X11290301Y-15459674D02*
X11290301Y-15507293D01*
X11290301Y-15507293D02*
X11280777Y-15545388D01*
X11280777Y-15545388D02*
X11271253Y-15564436D01*
X11271253Y-15564436D02*
X11261729Y-15573960D01*
X11261729Y-15573960D02*
X11242682Y-15583484D01*
X11242682Y-15583484D02*
X11223634Y-15583484D01*
X11223634Y-15583484D02*
X11204586Y-15573960D01*
X11204586Y-15573960D02*
X11195063Y-15564436D01*
X11195063Y-15564436D02*
X11185539Y-15545388D01*
X11185539Y-15545388D02*
X11176015Y-15507293D01*
X11176015Y-15507293D02*
X11176015Y-15459674D01*
X11176015Y-15459674D02*
X11185539Y-15421579D01*
X11185539Y-15421579D02*
X11195063Y-15402531D01*
X11195063Y-15402531D02*
X11204586Y-15393008D01*
X11204586Y-15393008D02*
X11223634Y-15383484D01*
X11376015Y-15564436D02*
X11385539Y-15573960D01*
X11385539Y-15573960D02*
X11376015Y-15583484D01*
X11376015Y-15583484D02*
X11366491Y-15573960D01*
X11366491Y-15573960D02*
X11376015Y-15564436D01*
X11376015Y-15564436D02*
X11376015Y-15583484D01*
X11509348Y-15383484D02*
X11528396Y-15383484D01*
X11528396Y-15383484D02*
X11547444Y-15393008D01*
X11547444Y-15393008D02*
X11556967Y-15402531D01*
X11556967Y-15402531D02*
X11566491Y-15421579D01*
X11566491Y-15421579D02*
X11576015Y-15459674D01*
X11576015Y-15459674D02*
X11576015Y-15507293D01*
X11576015Y-15507293D02*
X11566491Y-15545388D01*
X11566491Y-15545388D02*
X11556967Y-15564436D01*
X11556967Y-15564436D02*
X11547444Y-15573960D01*
X11547444Y-15573960D02*
X11528396Y-15583484D01*
X11528396Y-15583484D02*
X11509348Y-15583484D01*
X11509348Y-15583484D02*
X11490301Y-15573960D01*
X11490301Y-15573960D02*
X11480777Y-15564436D01*
X11480777Y-15564436D02*
X11471253Y-15545388D01*
X11471253Y-15545388D02*
X11461729Y-15507293D01*
X11461729Y-15507293D02*
X11461729Y-15459674D01*
X11461729Y-15459674D02*
X11471253Y-15421579D01*
X11471253Y-15421579D02*
X11480777Y-15402531D01*
X11480777Y-15402531D02*
X11490301Y-15393008D01*
X11490301Y-15393008D02*
X11509348Y-15383484D01*
X11756967Y-15383484D02*
X11661729Y-15383484D01*
X11661729Y-15383484D02*
X11652206Y-15478722D01*
X11652206Y-15478722D02*
X11661729Y-15469198D01*
X11661729Y-15469198D02*
X11680777Y-15459674D01*
X11680777Y-15459674D02*
X11728396Y-15459674D01*
X11728396Y-15459674D02*
X11747444Y-15469198D01*
X11747444Y-15469198D02*
X11756967Y-15478722D01*
X11756967Y-15478722D02*
X11766491Y-15497769D01*
X11766491Y-15497769D02*
X11766491Y-15545388D01*
X11766491Y-15545388D02*
X11756967Y-15564436D01*
X11756967Y-15564436D02*
X11747444Y-15573960D01*
X11747444Y-15573960D02*
X11728396Y-15583484D01*
X11728396Y-15583484D02*
X11680777Y-15583484D01*
X11680777Y-15583484D02*
X11661729Y-15573960D01*
X11661729Y-15573960D02*
X11652206Y-15564436D01*
X11861729Y-15583484D02*
X11899825Y-15583484D01*
X11899825Y-15583484D02*
X11918872Y-15573960D01*
X11918872Y-15573960D02*
X11928396Y-15564436D01*
X11928396Y-15564436D02*
X11947444Y-15535865D01*
X11947444Y-15535865D02*
X11956967Y-15497769D01*
X11956967Y-15497769D02*
X11956967Y-15421579D01*
X11956967Y-15421579D02*
X11947444Y-15402531D01*
X11947444Y-15402531D02*
X11937920Y-15393008D01*
X11937920Y-15393008D02*
X11918872Y-15383484D01*
X11918872Y-15383484D02*
X11880777Y-15383484D01*
X11880777Y-15383484D02*
X11861729Y-15393008D01*
X11861729Y-15393008D02*
X11852206Y-15402531D01*
X11852206Y-15402531D02*
X11842682Y-15421579D01*
X11842682Y-15421579D02*
X11842682Y-15469198D01*
X11842682Y-15469198D02*
X11852206Y-15488246D01*
X11852206Y-15488246D02*
X11861729Y-15497769D01*
X11861729Y-15497769D02*
X11880777Y-15507293D01*
X11880777Y-15507293D02*
X11918872Y-15507293D01*
X11918872Y-15507293D02*
X11937920Y-15497769D01*
X11937920Y-15497769D02*
X11947444Y-15488246D01*
X11947444Y-15488246D02*
X11956967Y-15469198D01*
X12147444Y-15583484D02*
X12033158Y-15583484D01*
X12090301Y-15583484D02*
X12090301Y-15383484D01*
X12090301Y-15383484D02*
X12071253Y-15412055D01*
X12071253Y-15412055D02*
X12052206Y-15431103D01*
X12052206Y-15431103D02*
X12033158Y-15440627D01*
X12223634Y-15383484D02*
X12223634Y-15421579D01*
X12299825Y-15383484D02*
X12299825Y-15421579D01*
X12595063Y-15659674D02*
X12585539Y-15650150D01*
X12585539Y-15650150D02*
X12566491Y-15621579D01*
X12566491Y-15621579D02*
X12556968Y-15602531D01*
X12556968Y-15602531D02*
X12547444Y-15573960D01*
X12547444Y-15573960D02*
X12537920Y-15526341D01*
X12537920Y-15526341D02*
X12537920Y-15488246D01*
X12537920Y-15488246D02*
X12547444Y-15440627D01*
X12547444Y-15440627D02*
X12556968Y-15412055D01*
X12556968Y-15412055D02*
X12566491Y-15393008D01*
X12566491Y-15393008D02*
X12585539Y-15364436D01*
X12585539Y-15364436D02*
X12595063Y-15354912D01*
X12776015Y-15583484D02*
X12661729Y-15583484D01*
X12718872Y-15583484D02*
X12718872Y-15383484D01*
X12718872Y-15383484D02*
X12699825Y-15412055D01*
X12699825Y-15412055D02*
X12680777Y-15431103D01*
X12680777Y-15431103D02*
X12661729Y-15440627D01*
X13014110Y-15583484D02*
X13014110Y-15383484D01*
X13099825Y-15583484D02*
X13099825Y-15478722D01*
X13099825Y-15478722D02*
X13090301Y-15459674D01*
X13090301Y-15459674D02*
X13071253Y-15450150D01*
X13071253Y-15450150D02*
X13042682Y-15450150D01*
X13042682Y-15450150D02*
X13023634Y-15459674D01*
X13023634Y-15459674D02*
X13014110Y-15469198D01*
X13223634Y-15583484D02*
X13204587Y-15573960D01*
X13204587Y-15573960D02*
X13195063Y-15564436D01*
X13195063Y-15564436D02*
X13185539Y-15545388D01*
X13185539Y-15545388D02*
X13185539Y-15488246D01*
X13185539Y-15488246D02*
X13195063Y-15469198D01*
X13195063Y-15469198D02*
X13204587Y-15459674D01*
X13204587Y-15459674D02*
X13223634Y-15450150D01*
X13223634Y-15450150D02*
X13252206Y-15450150D01*
X13252206Y-15450150D02*
X13271253Y-15459674D01*
X13271253Y-15459674D02*
X13280777Y-15469198D01*
X13280777Y-15469198D02*
X13290301Y-15488246D01*
X13290301Y-15488246D02*
X13290301Y-15545388D01*
X13290301Y-15545388D02*
X13280777Y-15564436D01*
X13280777Y-15564436D02*
X13271253Y-15573960D01*
X13271253Y-15573960D02*
X13252206Y-15583484D01*
X13252206Y-15583484D02*
X13223634Y-15583484D01*
X13404587Y-15583484D02*
X13385539Y-15573960D01*
X13385539Y-15573960D02*
X13376015Y-15554912D01*
X13376015Y-15554912D02*
X13376015Y-15383484D01*
X13556968Y-15573960D02*
X13537920Y-15583484D01*
X13537920Y-15583484D02*
X13499825Y-15583484D01*
X13499825Y-15583484D02*
X13480777Y-15573960D01*
X13480777Y-15573960D02*
X13471253Y-15554912D01*
X13471253Y-15554912D02*
X13471253Y-15478722D01*
X13471253Y-15478722D02*
X13480777Y-15459674D01*
X13480777Y-15459674D02*
X13499825Y-15450150D01*
X13499825Y-15450150D02*
X13537920Y-15450150D01*
X13537920Y-15450150D02*
X13556968Y-15459674D01*
X13556968Y-15459674D02*
X13566491Y-15478722D01*
X13566491Y-15478722D02*
X13566491Y-15497769D01*
X13566491Y-15497769D02*
X13471253Y-15516817D01*
X13633158Y-15659674D02*
X13642682Y-15650150D01*
X13642682Y-15650150D02*
X13661730Y-15621579D01*
X13661730Y-15621579D02*
X13671253Y-15602531D01*
X13671253Y-15602531D02*
X13680777Y-15573960D01*
X13680777Y-15573960D02*
X13690301Y-15526341D01*
X13690301Y-15526341D02*
X13690301Y-15488246D01*
X13690301Y-15488246D02*
X13680777Y-15440627D01*
X13680777Y-15440627D02*
X13671253Y-15412055D01*
X13671253Y-15412055D02*
X13661730Y-15393008D01*
X13661730Y-15393008D02*
X13642682Y-15364436D01*
X13642682Y-15364436D02*
X13633158Y-15354912D01*
D13*
X8940000Y-15842000D02*
X9020000Y-15762000D01*
X8940000Y-15682000D01*
X8860000Y-15762000D01*
X8940000Y-15842000D01*
D11*
X9385539Y-15853484D02*
X9271253Y-15853484D01*
X9328396Y-15853484D02*
X9328396Y-15653484D01*
X9328396Y-15653484D02*
X9309348Y-15682055D01*
X9309348Y-15682055D02*
X9290301Y-15701103D01*
X9290301Y-15701103D02*
X9271253Y-15710627D01*
X9471253Y-15834436D02*
X9480777Y-15843960D01*
X9480777Y-15843960D02*
X9471253Y-15853484D01*
X9471253Y-15853484D02*
X9461729Y-15843960D01*
X9461729Y-15843960D02*
X9471253Y-15834436D01*
X9471253Y-15834436D02*
X9471253Y-15853484D01*
X9652205Y-15653484D02*
X9614110Y-15653484D01*
X9614110Y-15653484D02*
X9595063Y-15663008D01*
X9595063Y-15663008D02*
X9585539Y-15672531D01*
X9585539Y-15672531D02*
X9566491Y-15701103D01*
X9566491Y-15701103D02*
X9556967Y-15739198D01*
X9556967Y-15739198D02*
X9556967Y-15815388D01*
X9556967Y-15815388D02*
X9566491Y-15834436D01*
X9566491Y-15834436D02*
X9576015Y-15843960D01*
X9576015Y-15843960D02*
X9595063Y-15853484D01*
X9595063Y-15853484D02*
X9633158Y-15853484D01*
X9633158Y-15853484D02*
X9652205Y-15843960D01*
X9652205Y-15843960D02*
X9661729Y-15834436D01*
X9661729Y-15834436D02*
X9671253Y-15815388D01*
X9671253Y-15815388D02*
X9671253Y-15767769D01*
X9671253Y-15767769D02*
X9661729Y-15748722D01*
X9661729Y-15748722D02*
X9652205Y-15739198D01*
X9652205Y-15739198D02*
X9633158Y-15729674D01*
X9633158Y-15729674D02*
X9595063Y-15729674D01*
X9595063Y-15729674D02*
X9576015Y-15739198D01*
X9576015Y-15739198D02*
X9566491Y-15748722D01*
X9566491Y-15748722D02*
X9556967Y-15767769D01*
X9795063Y-15653484D02*
X9814110Y-15653484D01*
X9814110Y-15653484D02*
X9833158Y-15663008D01*
X9833158Y-15663008D02*
X9842682Y-15672531D01*
X9842682Y-15672531D02*
X9852205Y-15691579D01*
X9852205Y-15691579D02*
X9861729Y-15729674D01*
X9861729Y-15729674D02*
X9861729Y-15777293D01*
X9861729Y-15777293D02*
X9852205Y-15815388D01*
X9852205Y-15815388D02*
X9842682Y-15834436D01*
X9842682Y-15834436D02*
X9833158Y-15843960D01*
X9833158Y-15843960D02*
X9814110Y-15853484D01*
X9814110Y-15853484D02*
X9795063Y-15853484D01*
X9795063Y-15853484D02*
X9776015Y-15843960D01*
X9776015Y-15843960D02*
X9766491Y-15834436D01*
X9766491Y-15834436D02*
X9756967Y-15815388D01*
X9756967Y-15815388D02*
X9747444Y-15777293D01*
X9747444Y-15777293D02*
X9747444Y-15729674D01*
X9747444Y-15729674D02*
X9756967Y-15691579D01*
X9756967Y-15691579D02*
X9766491Y-15672531D01*
X9766491Y-15672531D02*
X9776015Y-15663008D01*
X9776015Y-15663008D02*
X9795063Y-15653484D01*
X9985539Y-15653484D02*
X10004586Y-15653484D01*
X10004586Y-15653484D02*
X10023634Y-15663008D01*
X10023634Y-15663008D02*
X10033158Y-15672531D01*
X10033158Y-15672531D02*
X10042682Y-15691579D01*
X10042682Y-15691579D02*
X10052205Y-15729674D01*
X10052205Y-15729674D02*
X10052205Y-15777293D01*
X10052205Y-15777293D02*
X10042682Y-15815388D01*
X10042682Y-15815388D02*
X10033158Y-15834436D01*
X10033158Y-15834436D02*
X10023634Y-15843960D01*
X10023634Y-15843960D02*
X10004586Y-15853484D01*
X10004586Y-15853484D02*
X9985539Y-15853484D01*
X9985539Y-15853484D02*
X9966491Y-15843960D01*
X9966491Y-15843960D02*
X9956967Y-15834436D01*
X9956967Y-15834436D02*
X9947444Y-15815388D01*
X9947444Y-15815388D02*
X9937920Y-15777293D01*
X9937920Y-15777293D02*
X9937920Y-15729674D01*
X9937920Y-15729674D02*
X9947444Y-15691579D01*
X9947444Y-15691579D02*
X9956967Y-15672531D01*
X9956967Y-15672531D02*
X9966491Y-15663008D01*
X9966491Y-15663008D02*
X9985539Y-15653484D01*
X10137920Y-15853484D02*
X10137920Y-15720150D01*
X10137920Y-15739198D02*
X10147444Y-15729674D01*
X10147444Y-15729674D02*
X10166491Y-15720150D01*
X10166491Y-15720150D02*
X10195063Y-15720150D01*
X10195063Y-15720150D02*
X10214110Y-15729674D01*
X10214110Y-15729674D02*
X10223634Y-15748722D01*
X10223634Y-15748722D02*
X10223634Y-15853484D01*
X10223634Y-15748722D02*
X10233158Y-15729674D01*
X10233158Y-15729674D02*
X10252205Y-15720150D01*
X10252205Y-15720150D02*
X10280777Y-15720150D01*
X10280777Y-15720150D02*
X10299825Y-15729674D01*
X10299825Y-15729674D02*
X10309348Y-15748722D01*
X10309348Y-15748722D02*
X10309348Y-15853484D01*
X10404586Y-15853484D02*
X10404586Y-15720150D01*
X10404586Y-15739198D02*
X10414110Y-15729674D01*
X10414110Y-15729674D02*
X10433158Y-15720150D01*
X10433158Y-15720150D02*
X10461729Y-15720150D01*
X10461729Y-15720150D02*
X10480777Y-15729674D01*
X10480777Y-15729674D02*
X10490301Y-15748722D01*
X10490301Y-15748722D02*
X10490301Y-15853484D01*
X10490301Y-15748722D02*
X10499825Y-15729674D01*
X10499825Y-15729674D02*
X10518872Y-15720150D01*
X10518872Y-15720150D02*
X10547444Y-15720150D01*
X10547444Y-15720150D02*
X10566491Y-15729674D01*
X10566491Y-15729674D02*
X10576015Y-15748722D01*
X10576015Y-15748722D02*
X10576015Y-15853484D01*
X10966491Y-15643960D02*
X10795063Y-15901103D01*
X11223634Y-15653484D02*
X11242682Y-15653484D01*
X11242682Y-15653484D02*
X11261729Y-15663008D01*
X11261729Y-15663008D02*
X11271253Y-15672531D01*
X11271253Y-15672531D02*
X11280777Y-15691579D01*
X11280777Y-15691579D02*
X11290301Y-15729674D01*
X11290301Y-15729674D02*
X11290301Y-15777293D01*
X11290301Y-15777293D02*
X11280777Y-15815388D01*
X11280777Y-15815388D02*
X11271253Y-15834436D01*
X11271253Y-15834436D02*
X11261729Y-15843960D01*
X11261729Y-15843960D02*
X11242682Y-15853484D01*
X11242682Y-15853484D02*
X11223634Y-15853484D01*
X11223634Y-15853484D02*
X11204586Y-15843960D01*
X11204586Y-15843960D02*
X11195063Y-15834436D01*
X11195063Y-15834436D02*
X11185539Y-15815388D01*
X11185539Y-15815388D02*
X11176015Y-15777293D01*
X11176015Y-15777293D02*
X11176015Y-15729674D01*
X11176015Y-15729674D02*
X11185539Y-15691579D01*
X11185539Y-15691579D02*
X11195063Y-15672531D01*
X11195063Y-15672531D02*
X11204586Y-15663008D01*
X11204586Y-15663008D02*
X11223634Y-15653484D01*
X11376015Y-15834436D02*
X11385539Y-15843960D01*
X11385539Y-15843960D02*
X11376015Y-15853484D01*
X11376015Y-15853484D02*
X11366491Y-15843960D01*
X11366491Y-15843960D02*
X11376015Y-15834436D01*
X11376015Y-15834436D02*
X11376015Y-15853484D01*
X11509348Y-15653484D02*
X11528396Y-15653484D01*
X11528396Y-15653484D02*
X11547444Y-15663008D01*
X11547444Y-15663008D02*
X11556967Y-15672531D01*
X11556967Y-15672531D02*
X11566491Y-15691579D01*
X11566491Y-15691579D02*
X11576015Y-15729674D01*
X11576015Y-15729674D02*
X11576015Y-15777293D01*
X11576015Y-15777293D02*
X11566491Y-15815388D01*
X11566491Y-15815388D02*
X11556967Y-15834436D01*
X11556967Y-15834436D02*
X11547444Y-15843960D01*
X11547444Y-15843960D02*
X11528396Y-15853484D01*
X11528396Y-15853484D02*
X11509348Y-15853484D01*
X11509348Y-15853484D02*
X11490301Y-15843960D01*
X11490301Y-15843960D02*
X11480777Y-15834436D01*
X11480777Y-15834436D02*
X11471253Y-15815388D01*
X11471253Y-15815388D02*
X11461729Y-15777293D01*
X11461729Y-15777293D02*
X11461729Y-15729674D01*
X11461729Y-15729674D02*
X11471253Y-15691579D01*
X11471253Y-15691579D02*
X11480777Y-15672531D01*
X11480777Y-15672531D02*
X11490301Y-15663008D01*
X11490301Y-15663008D02*
X11509348Y-15653484D01*
X11747444Y-15653484D02*
X11709348Y-15653484D01*
X11709348Y-15653484D02*
X11690301Y-15663008D01*
X11690301Y-15663008D02*
X11680777Y-15672531D01*
X11680777Y-15672531D02*
X11661729Y-15701103D01*
X11661729Y-15701103D02*
X11652206Y-15739198D01*
X11652206Y-15739198D02*
X11652206Y-15815388D01*
X11652206Y-15815388D02*
X11661729Y-15834436D01*
X11661729Y-15834436D02*
X11671253Y-15843960D01*
X11671253Y-15843960D02*
X11690301Y-15853484D01*
X11690301Y-15853484D02*
X11728396Y-15853484D01*
X11728396Y-15853484D02*
X11747444Y-15843960D01*
X11747444Y-15843960D02*
X11756967Y-15834436D01*
X11756967Y-15834436D02*
X11766491Y-15815388D01*
X11766491Y-15815388D02*
X11766491Y-15767769D01*
X11766491Y-15767769D02*
X11756967Y-15748722D01*
X11756967Y-15748722D02*
X11747444Y-15739198D01*
X11747444Y-15739198D02*
X11728396Y-15729674D01*
X11728396Y-15729674D02*
X11690301Y-15729674D01*
X11690301Y-15729674D02*
X11671253Y-15739198D01*
X11671253Y-15739198D02*
X11661729Y-15748722D01*
X11661729Y-15748722D02*
X11652206Y-15767769D01*
X11833158Y-15653484D02*
X11956967Y-15653484D01*
X11956967Y-15653484D02*
X11890301Y-15729674D01*
X11890301Y-15729674D02*
X11918872Y-15729674D01*
X11918872Y-15729674D02*
X11937920Y-15739198D01*
X11937920Y-15739198D02*
X11947444Y-15748722D01*
X11947444Y-15748722D02*
X11956967Y-15767769D01*
X11956967Y-15767769D02*
X11956967Y-15815388D01*
X11956967Y-15815388D02*
X11947444Y-15834436D01*
X11947444Y-15834436D02*
X11937920Y-15843960D01*
X11937920Y-15843960D02*
X11918872Y-15853484D01*
X11918872Y-15853484D02*
X11861729Y-15853484D01*
X11861729Y-15853484D02*
X11842682Y-15843960D01*
X11842682Y-15843960D02*
X11833158Y-15834436D01*
X12080777Y-15653484D02*
X12099825Y-15653484D01*
X12099825Y-15653484D02*
X12118872Y-15663008D01*
X12118872Y-15663008D02*
X12128396Y-15672531D01*
X12128396Y-15672531D02*
X12137920Y-15691579D01*
X12137920Y-15691579D02*
X12147444Y-15729674D01*
X12147444Y-15729674D02*
X12147444Y-15777293D01*
X12147444Y-15777293D02*
X12137920Y-15815388D01*
X12137920Y-15815388D02*
X12128396Y-15834436D01*
X12128396Y-15834436D02*
X12118872Y-15843960D01*
X12118872Y-15843960D02*
X12099825Y-15853484D01*
X12099825Y-15853484D02*
X12080777Y-15853484D01*
X12080777Y-15853484D02*
X12061729Y-15843960D01*
X12061729Y-15843960D02*
X12052206Y-15834436D01*
X12052206Y-15834436D02*
X12042682Y-15815388D01*
X12042682Y-15815388D02*
X12033158Y-15777293D01*
X12033158Y-15777293D02*
X12033158Y-15729674D01*
X12033158Y-15729674D02*
X12042682Y-15691579D01*
X12042682Y-15691579D02*
X12052206Y-15672531D01*
X12052206Y-15672531D02*
X12061729Y-15663008D01*
X12061729Y-15663008D02*
X12080777Y-15653484D01*
X12223634Y-15653484D02*
X12223634Y-15691579D01*
X12299825Y-15653484D02*
X12299825Y-15691579D01*
X12595063Y-15929674D02*
X12585539Y-15920150D01*
X12585539Y-15920150D02*
X12566491Y-15891579D01*
X12566491Y-15891579D02*
X12556968Y-15872531D01*
X12556968Y-15872531D02*
X12547444Y-15843960D01*
X12547444Y-15843960D02*
X12537920Y-15796341D01*
X12537920Y-15796341D02*
X12537920Y-15758246D01*
X12537920Y-15758246D02*
X12547444Y-15710627D01*
X12547444Y-15710627D02*
X12556968Y-15682055D01*
X12556968Y-15682055D02*
X12566491Y-15663008D01*
X12566491Y-15663008D02*
X12585539Y-15634436D01*
X12585539Y-15634436D02*
X12595063Y-15624912D01*
X12756968Y-15720150D02*
X12756968Y-15853484D01*
X12709348Y-15643960D02*
X12661729Y-15786817D01*
X12661729Y-15786817D02*
X12785539Y-15786817D01*
X13014110Y-15853484D02*
X13014110Y-15653484D01*
X13099825Y-15853484D02*
X13099825Y-15748722D01*
X13099825Y-15748722D02*
X13090301Y-15729674D01*
X13090301Y-15729674D02*
X13071253Y-15720150D01*
X13071253Y-15720150D02*
X13042682Y-15720150D01*
X13042682Y-15720150D02*
X13023634Y-15729674D01*
X13023634Y-15729674D02*
X13014110Y-15739198D01*
X13223634Y-15853484D02*
X13204587Y-15843960D01*
X13204587Y-15843960D02*
X13195063Y-15834436D01*
X13195063Y-15834436D02*
X13185539Y-15815388D01*
X13185539Y-15815388D02*
X13185539Y-15758246D01*
X13185539Y-15758246D02*
X13195063Y-15739198D01*
X13195063Y-15739198D02*
X13204587Y-15729674D01*
X13204587Y-15729674D02*
X13223634Y-15720150D01*
X13223634Y-15720150D02*
X13252206Y-15720150D01*
X13252206Y-15720150D02*
X13271253Y-15729674D01*
X13271253Y-15729674D02*
X13280777Y-15739198D01*
X13280777Y-15739198D02*
X13290301Y-15758246D01*
X13290301Y-15758246D02*
X13290301Y-15815388D01*
X13290301Y-15815388D02*
X13280777Y-15834436D01*
X13280777Y-15834436D02*
X13271253Y-15843960D01*
X13271253Y-15843960D02*
X13252206Y-15853484D01*
X13252206Y-15853484D02*
X13223634Y-15853484D01*
X13404587Y-15853484D02*
X13385539Y-15843960D01*
X13385539Y-15843960D02*
X13376015Y-15824912D01*
X13376015Y-15824912D02*
X13376015Y-15653484D01*
X13556968Y-15843960D02*
X13537920Y-15853484D01*
X13537920Y-15853484D02*
X13499825Y-15853484D01*
X13499825Y-15853484D02*
X13480777Y-15843960D01*
X13480777Y-15843960D02*
X13471253Y-15824912D01*
X13471253Y-15824912D02*
X13471253Y-15748722D01*
X13471253Y-15748722D02*
X13480777Y-15729674D01*
X13480777Y-15729674D02*
X13499825Y-15720150D01*
X13499825Y-15720150D02*
X13537920Y-15720150D01*
X13537920Y-15720150D02*
X13556968Y-15729674D01*
X13556968Y-15729674D02*
X13566491Y-15748722D01*
X13566491Y-15748722D02*
X13566491Y-15767769D01*
X13566491Y-15767769D02*
X13471253Y-15786817D01*
X13642682Y-15843960D02*
X13661730Y-15853484D01*
X13661730Y-15853484D02*
X13699825Y-15853484D01*
X13699825Y-15853484D02*
X13718872Y-15843960D01*
X13718872Y-15843960D02*
X13728396Y-15824912D01*
X13728396Y-15824912D02*
X13728396Y-15815388D01*
X13728396Y-15815388D02*
X13718872Y-15796341D01*
X13718872Y-15796341D02*
X13699825Y-15786817D01*
X13699825Y-15786817D02*
X13671253Y-15786817D01*
X13671253Y-15786817D02*
X13652206Y-15777293D01*
X13652206Y-15777293D02*
X13642682Y-15758246D01*
X13642682Y-15758246D02*
X13642682Y-15748722D01*
X13642682Y-15748722D02*
X13652206Y-15729674D01*
X13652206Y-15729674D02*
X13671253Y-15720150D01*
X13671253Y-15720150D02*
X13699825Y-15720150D01*
X13699825Y-15720150D02*
X13718872Y-15729674D01*
X13795063Y-15929674D02*
X13804587Y-15920150D01*
X13804587Y-15920150D02*
X13823634Y-15891579D01*
X13823634Y-15891579D02*
X13833158Y-15872531D01*
X13833158Y-15872531D02*
X13842682Y-15843960D01*
X13842682Y-15843960D02*
X13852206Y-15796341D01*
X13852206Y-15796341D02*
X13852206Y-15758246D01*
X13852206Y-15758246D02*
X13842682Y-15710627D01*
X13842682Y-15710627D02*
X13833158Y-15682055D01*
X13833158Y-15682055D02*
X13823634Y-15663008D01*
X13823634Y-15663008D02*
X13804587Y-15634436D01*
X13804587Y-15634436D02*
X13795063Y-15624912D01*
M02*
