%TF.GenerationSoftware,KiCad,Pcbnew,9.0.2*%
%TF.CreationDate,2025-12-25T22:22:41-08:00*%
%TF.ProjectId,FlightController,466c6967-6874-4436-9f6e-74726f6c6c65,rev?*%
%TF.SameCoordinates,Original*%
%TF.FileFunction,Soldermask,Top*%
%TF.FilePolarity,Negative*%
%FSLAX46Y46*%
G04 Gerber Fmt 4.6, Leading zero omitted, Abs format (unit mm)*
G04 Created by KiCad (PCBNEW 9.0.2) date 2025-12-25 22:22:41*
%MOMM*%
%LPD*%
G01*
G04 APERTURE LIST*
G04 Aperture macros list*
%AMRoundRect*
0 Rectangle with rounded corners*
0 $1 Rounding radius*
0 $2 $3 $4 $5 $6 $7 $8 $9 X,Y pos of 4 corners*
0 Add a 4 corners polygon primitive as box body*
4,1,4,$2,$3,$4,$5,$6,$7,$8,$9,$2,$3,0*
0 Add four circle primitives for the rounded corners*
1,1,$1+$1,$2,$3*
1,1,$1+$1,$4,$5*
1,1,$1+$1,$6,$7*
1,1,$1+$1,$8,$9*
0 Add four rect primitives between the rounded corners*
20,1,$1+$1,$2,$3,$4,$5,0*
20,1,$1+$1,$4,$5,$6,$7,0*
20,1,$1+$1,$6,$7,$8,$9,0*
20,1,$1+$1,$8,$9,$2,$3,0*%
%AMRotRect*
0 Rectangle, with rotation*
0 The origin of the aperture is its center*
0 $1 length*
0 $2 width*
0 $3 Rotation angle, in degrees counterclockwise*
0 Add horizontal line*
21,1,$1,$2,0,0,$3*%
G04 Aperture macros list end*
%ADD10RoundRect,0.160000X-0.160000X0.197500X-0.160000X-0.197500X0.160000X-0.197500X0.160000X0.197500X0*%
%ADD11RoundRect,0.160000X0.160000X-0.197500X0.160000X0.197500X-0.160000X0.197500X-0.160000X-0.197500X0*%
%ADD12RoundRect,0.152400X-1.063600X-0.609600X1.063600X-0.609600X1.063600X0.609600X-1.063600X0.609600X0*%
%ADD13C,1.524000*%
%ADD14RoundRect,0.152400X1.063600X0.609600X-1.063600X0.609600X-1.063600X-0.609600X1.063600X-0.609600X0*%
%ADD15RoundRect,0.102000X-0.975000X-0.525000X0.975000X-0.525000X0.975000X0.525000X-0.975000X0.525000X0*%
%ADD16RotRect,1.700000X1.700000X135.000000*%
%ADD17C,1.700000*%
%ADD18R,1.700000X1.700000*%
%ADD19C,2.454000*%
%ADD20C,2.604000*%
G04 APERTURE END LIST*
D10*
%TO.C,R3*%
X176290000Y-84400000D03*
X176290000Y-83205000D03*
%TD*%
%TO.C,R4*%
X174300000Y-84400000D03*
X174300000Y-83205000D03*
%TD*%
D11*
%TO.C,R2*%
X156290000Y-49602500D03*
X156290000Y-50797500D03*
%TD*%
%TO.C,R1*%
X154300000Y-49602500D03*
X154300000Y-50797500D03*
%TD*%
D12*
%TO.C,U1*%
X149555000Y-46300000D03*
D13*
X148720000Y-46300000D03*
D12*
X149555000Y-48840000D03*
D13*
X148720000Y-48840000D03*
D12*
X149555000Y-51380000D03*
D13*
X148720000Y-51380000D03*
D12*
X149555000Y-53920000D03*
D13*
X148720000Y-53920000D03*
D12*
X149555000Y-56460000D03*
D13*
X148720000Y-56460000D03*
D12*
X149555000Y-59000000D03*
D13*
X148720000Y-59000000D03*
D12*
X149555000Y-61540000D03*
D13*
X148720000Y-61540000D03*
X133480000Y-61540000D03*
D14*
X132645000Y-61540000D03*
D13*
X133480000Y-59000000D03*
D14*
X132645000Y-59000000D03*
D13*
X133480000Y-56460000D03*
D14*
X132645000Y-56460000D03*
D13*
X133480000Y-53920000D03*
D14*
X132645000Y-53920000D03*
D13*
X133480000Y-51380000D03*
D14*
X132645000Y-51380000D03*
D13*
X133480000Y-48840000D03*
D14*
X132645000Y-48840000D03*
D13*
X133480000Y-46300000D03*
D14*
X132645000Y-46300000D03*
%TD*%
D15*
%TO.C,U2*%
X152533274Y-76000000D03*
X152533274Y-78000000D03*
X152533274Y-80000000D03*
X152533274Y-82000000D03*
X152533274Y-84000000D03*
X152533274Y-86000000D03*
X152533274Y-88000000D03*
X152533274Y-90000000D03*
X167333274Y-90000000D03*
X167333274Y-88000000D03*
X167333274Y-86000000D03*
X167333274Y-84000000D03*
X167333274Y-82000000D03*
X167333274Y-80000000D03*
X167333274Y-78000000D03*
X167333274Y-76000000D03*
%TD*%
D16*
%TO.C,J6*%
X166703949Y-113796051D03*
D17*
X168500000Y-112000000D03*
X170296051Y-110203949D03*
%TD*%
D18*
%TO.C,J5*%
X110700000Y-83080000D03*
D17*
X110700000Y-85620000D03*
X110700000Y-88160000D03*
X110700000Y-90700000D03*
X110700000Y-93240000D03*
%TD*%
D18*
%TO.C,J4*%
X133400000Y-83920000D03*
D17*
X133400000Y-86460000D03*
X133400000Y-89000000D03*
%TD*%
D18*
%TO.C,J3*%
X152300000Y-124400000D03*
%TD*%
%TO.C,J2*%
X135100000Y-124400000D03*
%TD*%
D19*
%TO.C,TS Better Work*%
X179200000Y-92700000D03*
D20*
X176660000Y-90160000D03*
X176660000Y-95240000D03*
X181740000Y-95240000D03*
X181740000Y-90160000D03*
%TD*%
M02*
