%TF.GenerationSoftware,KiCad,Pcbnew,9.0.2*%
%TF.CreationDate,2025-12-25T22:22:40-08:00*%
%TF.ProjectId,FlightController,466c6967-6874-4436-9f6e-74726f6c6c65,rev?*%
%TF.SameCoordinates,Original*%
%TF.FileFunction,Drillmap*%
%TF.FilePolarity,Positive*%
%FSLAX45Y45*%
G04 Gerber Fmt 4.5, Leading zero omitted, Abs format (unit mm)*
G04 Created by KiCad (PCBNEW 9.0.2) date 2025-12-25 22:22:40*
%MOMM*%
%LPD*%
G01*
G04 APERTURE LIST*
%ADD10C,0.100000*%
%ADD11C,0.200000*%
G04 APERTURE END LIST*
D10*
X11007811Y-5653669D02*
G75*
G02*
X10607811Y-5653669I-200000J0D01*
G01*
X10607811Y-5653669D02*
G75*
G02*
X11007811Y-5653669I200000J0D01*
G01*
X11000740Y-12279260D02*
G75*
G02*
X10600740Y-12279260I-200000J0D01*
G01*
X10600740Y-12279260D02*
G75*
G02*
X11000740Y-12279260I200000J0D01*
G01*
X17626331Y-12272189D02*
G75*
G02*
X17226331Y-12272189I-200000J0D01*
G01*
X17226331Y-12272189D02*
G75*
G02*
X17626331Y-12272189I200000J0D01*
G01*
D11*
X19190000Y-8970000D02*
G75*
G02*
X9030000Y-8970000I-5080000J0D01*
G01*
X9030000Y-8970000D02*
G75*
G02*
X19190000Y-8970000I5080000J0D01*
G01*
D10*
X17619260Y-5660740D02*
G75*
G02*
X17219260Y-5660740I-200000J0D01*
G01*
X17219260Y-5660740D02*
G75*
G02*
X17619260Y-5660740I200000J0D01*
G01*
D11*
X9280777Y-14371484D02*
X9280777Y-14171484D01*
X9280777Y-14171484D02*
X9328396Y-14171484D01*
X9328396Y-14171484D02*
X9356967Y-14181008D01*
X9356967Y-14181008D02*
X9376015Y-14200055D01*
X9376015Y-14200055D02*
X9385539Y-14219103D01*
X9385539Y-14219103D02*
X9395063Y-14257198D01*
X9395063Y-14257198D02*
X9395063Y-14285769D01*
X9395063Y-14285769D02*
X9385539Y-14323865D01*
X9385539Y-14323865D02*
X9376015Y-14342912D01*
X9376015Y-14342912D02*
X9356967Y-14361960D01*
X9356967Y-14361960D02*
X9328396Y-14371484D01*
X9328396Y-14371484D02*
X9280777Y-14371484D01*
X9480777Y-14371484D02*
X9480777Y-14238150D01*
X9480777Y-14276246D02*
X9490301Y-14257198D01*
X9490301Y-14257198D02*
X9499824Y-14247674D01*
X9499824Y-14247674D02*
X9518872Y-14238150D01*
X9518872Y-14238150D02*
X9537920Y-14238150D01*
X9604586Y-14371484D02*
X9604586Y-14238150D01*
X9604586Y-14171484D02*
X9595063Y-14181008D01*
X9595063Y-14181008D02*
X9604586Y-14190531D01*
X9604586Y-14190531D02*
X9614110Y-14181008D01*
X9614110Y-14181008D02*
X9604586Y-14171484D01*
X9604586Y-14171484D02*
X9604586Y-14190531D01*
X9728396Y-14371484D02*
X9709348Y-14361960D01*
X9709348Y-14361960D02*
X9699824Y-14342912D01*
X9699824Y-14342912D02*
X9699824Y-14171484D01*
X9833158Y-14371484D02*
X9814110Y-14361960D01*
X9814110Y-14361960D02*
X9804586Y-14342912D01*
X9804586Y-14342912D02*
X9804586Y-14171484D01*
X10061729Y-14371484D02*
X10061729Y-14171484D01*
X10061729Y-14171484D02*
X10128396Y-14314341D01*
X10128396Y-14314341D02*
X10195063Y-14171484D01*
X10195063Y-14171484D02*
X10195063Y-14371484D01*
X10376015Y-14371484D02*
X10376015Y-14266722D01*
X10376015Y-14266722D02*
X10366491Y-14247674D01*
X10366491Y-14247674D02*
X10347444Y-14238150D01*
X10347444Y-14238150D02*
X10309348Y-14238150D01*
X10309348Y-14238150D02*
X10290301Y-14247674D01*
X10376015Y-14361960D02*
X10356967Y-14371484D01*
X10356967Y-14371484D02*
X10309348Y-14371484D01*
X10309348Y-14371484D02*
X10290301Y-14361960D01*
X10290301Y-14361960D02*
X10280777Y-14342912D01*
X10280777Y-14342912D02*
X10280777Y-14323865D01*
X10280777Y-14323865D02*
X10290301Y-14304817D01*
X10290301Y-14304817D02*
X10309348Y-14295293D01*
X10309348Y-14295293D02*
X10356967Y-14295293D01*
X10356967Y-14295293D02*
X10376015Y-14285769D01*
X10471253Y-14238150D02*
X10471253Y-14438150D01*
X10471253Y-14247674D02*
X10490301Y-14238150D01*
X10490301Y-14238150D02*
X10528396Y-14238150D01*
X10528396Y-14238150D02*
X10547444Y-14247674D01*
X10547444Y-14247674D02*
X10556967Y-14257198D01*
X10556967Y-14257198D02*
X10566491Y-14276246D01*
X10566491Y-14276246D02*
X10566491Y-14333388D01*
X10566491Y-14333388D02*
X10556967Y-14352436D01*
X10556967Y-14352436D02*
X10547444Y-14361960D01*
X10547444Y-14361960D02*
X10528396Y-14371484D01*
X10528396Y-14371484D02*
X10490301Y-14371484D01*
X10490301Y-14371484D02*
X10471253Y-14361960D01*
X10652205Y-14352436D02*
X10661729Y-14361960D01*
X10661729Y-14361960D02*
X10652205Y-14371484D01*
X10652205Y-14371484D02*
X10642682Y-14361960D01*
X10642682Y-14361960D02*
X10652205Y-14352436D01*
X10652205Y-14352436D02*
X10652205Y-14371484D01*
X10652205Y-14247674D02*
X10661729Y-14257198D01*
X10661729Y-14257198D02*
X10652205Y-14266722D01*
X10652205Y-14266722D02*
X10642682Y-14257198D01*
X10642682Y-14257198D02*
X10652205Y-14247674D01*
X10652205Y-14247674D02*
X10652205Y-14266722D01*
M02*
