%TF.GenerationSoftware,KiCad,Pcbnew,10.0.0-rc2*%
%TF.CreationDate,2026-05-13T16:23:41-07:00*%
%TF.ProjectId,Controlexp,436f6e74-726f-46c6-9578-702e6b696361,rev?*%
%TF.SameCoordinates,Original*%
%TF.FileFunction,Paste,Top*%
%TF.FilePolarity,Positive*%
%FSLAX46Y46*%
G04 Gerber Fmt 4.6, Leading zero omitted, Abs format (unit mm)*
G04 Created by KiCad (PCBNEW 10.0.0-rc2) date 2026-05-13 16:23:41*
%MOMM*%
%LPD*%
G01*
G04 APERTURE LIST*
G04 Aperture macros list*
%AMRoundRect*
0 Rectangle with rounded corners*
0 $1 Rounding radius*
0 $2 $3 $4 $5 $6 $7 $8 $9 X,Y pos of 4 corners*
0 Add a 4 corners polygon primitive as box body*
4,1,4,$2,$3,$4,$5,$6,$7,$8,$9,$2,$3,0*
0 Add four circle primitives for the rounded corners*
1,1,$1+$1,$2,$3*
1,1,$1+$1,$4,$5*
1,1,$1+$1,$6,$7*
1,1,$1+$1,$8,$9*
0 Add four rect primitives between the rounded corners*
20,1,$1+$1,$2,$3,$4,$5,0*
20,1,$1+$1,$4,$5,$6,$7,0*
20,1,$1+$1,$6,$7,$8,$9,0*
20,1,$1+$1,$8,$9,$2,$3,0*%
%AMFreePoly0*
4,1,15,-0.616000,0.142500,-0.283500,0.475000,0.521000,0.475000,0.557355,0.467769,0.588175,0.447175,0.608769,0.416355,0.616000,0.380000,0.616000,-0.380000,0.608769,-0.416355,0.588175,-0.447175,0.557355,-0.467769,0.521000,-0.475000,-0.283500,-0.475000,-0.616000,-0.142500,-0.616000,0.142500,-0.616000,0.142500,$1*%
G04 Aperture macros list end*
%ADD10RoundRect,0.218750X-0.218750X-0.381250X0.218750X-0.381250X0.218750X0.381250X-0.218750X0.381250X0*%
%ADD11RoundRect,0.250000X-0.475000X0.250000X-0.475000X-0.250000X0.475000X-0.250000X0.475000X0.250000X0*%
%ADD12RoundRect,0.150000X0.700000X-0.150000X0.700000X0.150000X-0.700000X0.150000X-0.700000X-0.150000X0*%
%ADD13RoundRect,0.250000X1.150000X-0.250000X1.150000X0.250000X-1.150000X0.250000X-1.150000X-0.250000X0*%
%ADD14RoundRect,0.200000X0.200000X0.275000X-0.200000X0.275000X-0.200000X-0.275000X0.200000X-0.275000X0*%
%ADD15R,0.750000X0.650000*%
%ADD16RoundRect,0.062500X-0.187500X-0.062500X0.187500X-0.062500X0.187500X0.062500X-0.187500X0.062500X0*%
%ADD17RoundRect,0.250000X0.475000X-0.250000X0.475000X0.250000X-0.475000X0.250000X-0.475000X-0.250000X0*%
%ADD18RoundRect,0.243750X-0.243750X-0.456250X0.243750X-0.456250X0.243750X0.456250X-0.243750X0.456250X0*%
%ADD19RoundRect,0.250000X0.250000X0.475000X-0.250000X0.475000X-0.250000X-0.475000X0.250000X-0.475000X0*%
%ADD20RoundRect,0.150000X-0.150000X-0.700000X0.150000X-0.700000X0.150000X0.700000X-0.150000X0.700000X0*%
%ADD21RoundRect,0.250000X-0.250000X-1.150000X0.250000X-1.150000X0.250000X1.150000X-0.250000X1.150000X0*%
%ADD22RoundRect,0.150000X0.150000X0.700000X-0.150000X0.700000X-0.150000X-0.700000X0.150000X-0.700000X0*%
%ADD23RoundRect,0.250000X0.250000X1.150000X-0.250000X1.150000X-0.250000X-1.150000X0.250000X-1.150000X0*%
%ADD24RoundRect,0.150000X-0.512500X-0.150000X0.512500X-0.150000X0.512500X0.150000X-0.512500X0.150000X0*%
%ADD25R,0.275000X0.250000*%
%ADD26R,0.250000X0.275000*%
%ADD27RoundRect,0.095000X0.921000X0.380000X-0.921000X0.380000X-0.921000X-0.380000X0.921000X-0.380000X0*%
%ADD28RoundRect,0.095000X-0.921000X-0.380000X0.921000X-0.380000X0.921000X0.380000X-0.921000X0.380000X0*%
%ADD29FreePoly0,180.000000*%
%ADD30FreePoly0,0.000000*%
%ADD31C,1.700000*%
%ADD32RoundRect,0.110000X-0.440000X1.140000X-0.440000X-1.140000X0.440000X-1.140000X0.440000X1.140000X0*%
%ADD33RoundRect,0.250000X-1.150000X-1.000000X1.150000X-1.000000X1.150000X1.000000X-1.150000X1.000000X0*%
%ADD34R,3.180000X2.250000*%
%ADD35RoundRect,0.200000X-0.275000X0.200000X-0.275000X-0.200000X0.275000X-0.200000X0.275000X0.200000X0*%
G04 APERTURE END LIST*
D10*
%TO.C,L2*%
X144192500Y-46715000D03*
X146317500Y-46715000D03*
%TD*%
D11*
%TO.C,C1*%
X169250000Y-59050000D03*
X169250000Y-60950000D03*
%TD*%
D10*
%TO.C,L1*%
X179257500Y-74570000D03*
X181382500Y-74570000D03*
%TD*%
D11*
%TO.C,C2*%
X171750000Y-59050000D03*
X171750000Y-60950000D03*
%TD*%
D12*
%TO.C,J6*%
X122075000Y-80195000D03*
X122075000Y-78945000D03*
X122075000Y-77695000D03*
X122075000Y-76445000D03*
D13*
X118725000Y-82045000D03*
X118725000Y-74595000D03*
%TD*%
D14*
%TO.C,R6*%
X118500000Y-66990000D03*
X116850000Y-66990000D03*
%TD*%
D15*
%TO.C,U3*%
X176810000Y-75270000D03*
X176810000Y-76070000D03*
D16*
X175860000Y-74920000D03*
X175860000Y-75420000D03*
X175860000Y-75920000D03*
X175860000Y-76420000D03*
X177760000Y-76420000D03*
X177760000Y-75920000D03*
X177760000Y-75420000D03*
X177760000Y-74920000D03*
%TD*%
D17*
%TO.C,C3*%
X141315000Y-59635000D03*
X141315000Y-57735000D03*
%TD*%
%TO.C,C9*%
X168995000Y-78415000D03*
X168995000Y-76515000D03*
%TD*%
D12*
%TO.C,J10*%
X111435000Y-78750000D03*
X111435000Y-77500000D03*
X111435000Y-76250000D03*
X111435000Y-75000000D03*
D13*
X108085000Y-80600000D03*
X108085000Y-73150000D03*
%TD*%
D18*
%TO.C,D1*%
X146797500Y-71620000D03*
X148672500Y-71620000D03*
%TD*%
D19*
%TO.C,C11*%
X142355000Y-50305000D03*
X140455000Y-50305000D03*
%TD*%
D20*
%TO.C,J8*%
X152070000Y-48895000D03*
X153320000Y-48895000D03*
X154570000Y-48895000D03*
X155820000Y-48895000D03*
D21*
X150220000Y-45545000D03*
X157670000Y-45545000D03*
%TD*%
D15*
%TO.C,U5*%
X145290000Y-49545000D03*
X145290000Y-50345000D03*
D16*
X144340000Y-49195000D03*
X144340000Y-49695000D03*
X144340000Y-50195000D03*
X144340000Y-50695000D03*
X146240000Y-50695000D03*
X146240000Y-50195000D03*
X146240000Y-49695000D03*
X146240000Y-49195000D03*
%TD*%
D11*
%TO.C,C6*%
X183320000Y-72620000D03*
X183320000Y-74520000D03*
%TD*%
D17*
%TO.C,C5*%
X173320000Y-75470000D03*
X173320000Y-73570000D03*
%TD*%
D11*
%TO.C,C14*%
X142035000Y-70315000D03*
X142035000Y-72215000D03*
%TD*%
D17*
%TO.C,C4*%
X144325000Y-59635000D03*
X144325000Y-57735000D03*
%TD*%
D14*
%TO.C,R5*%
X118500000Y-65000000D03*
X116850000Y-65000000D03*
%TD*%
D17*
%TO.C,C10*%
X141925000Y-48170000D03*
X141925000Y-46270000D03*
%TD*%
D22*
%TO.C,J7*%
X115080000Y-53425000D03*
X113830000Y-53425000D03*
X112580000Y-53425000D03*
X111330000Y-53425000D03*
D23*
X116930000Y-56775000D03*
X109480000Y-56775000D03*
%TD*%
D19*
%TO.C,C13*%
X136435000Y-73885000D03*
X134535000Y-73885000D03*
%TD*%
D24*
%TO.C,U6*%
X143417500Y-53050000D03*
X143417500Y-54000000D03*
X143417500Y-54950000D03*
X145692500Y-54950000D03*
X145692500Y-54000000D03*
X145692500Y-53050000D03*
%TD*%
D25*
%TO.C,U7*%
X138612500Y-74805000D03*
X138612500Y-75305000D03*
D26*
X138875000Y-75817500D03*
X139375000Y-75817500D03*
X139875000Y-75817500D03*
D25*
X140137500Y-75305000D03*
X140137500Y-74805000D03*
D26*
X139875000Y-74292500D03*
X139375000Y-74292500D03*
X138875000Y-74292500D03*
%TD*%
D22*
%TO.C,J9*%
X180995000Y-85265000D03*
X179745000Y-85265000D03*
X178495000Y-85265000D03*
D23*
X182845000Y-88615000D03*
X176645000Y-88615000D03*
%TD*%
D27*
%TO.C,U1*%
X122529000Y-54523700D03*
X122529000Y-57063700D03*
X122529000Y-59603700D03*
X122529000Y-62143700D03*
X122529000Y-64683700D03*
X122529000Y-67223700D03*
X122529000Y-69763700D03*
D28*
X139039000Y-69763700D03*
X139039000Y-67223700D03*
X139039000Y-64683700D03*
X139039000Y-62143700D03*
X139039000Y-59603700D03*
X139039000Y-57063700D03*
X139039000Y-54523700D03*
D29*
X122129000Y-55793700D03*
X122129000Y-58333700D03*
X122129000Y-60873700D03*
X122129000Y-63413700D03*
X122129000Y-65953700D03*
X122129000Y-68493700D03*
D30*
X139439000Y-68493700D03*
X139439000Y-65953700D03*
X139439000Y-63413700D03*
D31*
X129514000Y-53507700D03*
X132054000Y-53507700D03*
X129514000Y-56047700D03*
X132054000Y-56047700D03*
X129514000Y-58587700D03*
X132054000Y-58587700D03*
X129514000Y-61127700D03*
X132054000Y-61127700D03*
D32*
X129790012Y-67661523D03*
X131790012Y-67661523D03*
D33*
X131909000Y-64018700D03*
%TD*%
D34*
%TO.C,D2*%
X101550000Y-66000000D03*
X101550000Y-72910000D03*
%TD*%
D35*
%TO.C,R3*%
X149000000Y-77125000D03*
X149000000Y-78775000D03*
%TD*%
D11*
%TO.C,C12*%
X148095000Y-44745000D03*
X148095000Y-46645000D03*
%TD*%
M02*
