%TF.GenerationSoftware,KiCad,Pcbnew,9.0.2*%
%TF.CreationDate,2025-12-26T22:04:58-08:00*%
%TF.ProjectId,HallPCB,48616c6c-5043-4422-9e6b-696361645f70,rev?*%
%TF.SameCoordinates,Original*%
%TF.FileFunction,Legend,Bot*%
%TF.FilePolarity,Positive*%
%FSLAX46Y46*%
G04 Gerber Fmt 4.6, Leading zero omitted, Abs format (unit mm)*
G04 Created by KiCad (PCBNEW 9.0.2) date 2025-12-26 22:04:58*
%MOMM*%
%LPD*%
G01*
G04 APERTURE LIST*
%ADD10C,0.150000*%
%ADD11C,0.152400*%
G04 APERTURE END LIST*
D10*
X137523809Y-81493319D02*
X137523809Y-80493319D01*
X137523809Y-80969509D02*
X136952381Y-80969509D01*
X136952381Y-81493319D02*
X136952381Y-80493319D01*
X136523809Y-81207604D02*
X136047619Y-81207604D01*
X136619047Y-81493319D02*
X136285714Y-80493319D01*
X136285714Y-80493319D02*
X135952381Y-81493319D01*
X135142857Y-81493319D02*
X135619047Y-81493319D01*
X135619047Y-81493319D02*
X135619047Y-80493319D01*
X134333333Y-81493319D02*
X134809523Y-81493319D01*
X134809523Y-81493319D02*
X134809523Y-80493319D01*
X139196980Y-82486299D02*
X138958885Y-82486299D01*
X139054123Y-82724394D02*
X138958885Y-82486299D01*
X138958885Y-82486299D02*
X139054123Y-82248204D01*
X138768409Y-82629156D02*
X138958885Y-82486299D01*
X138958885Y-82486299D02*
X138768409Y-82343442D01*
X138106619Y-82486300D02*
X138344714Y-82486300D01*
X138249476Y-82248205D02*
X138344714Y-82486300D01*
X138344714Y-82486300D02*
X138249476Y-82724395D01*
X138535190Y-82343443D02*
X138344714Y-82486300D01*
X138344714Y-82486300D02*
X138535190Y-82629157D01*
D11*
%TO.C,HALL*%
X136337861Y-81864000D02*
X135662139Y-81864000D01*
%TD*%
M02*
