%TF.GenerationSoftware,KiCad,Pcbnew,9.0.2*%
%TF.CreationDate,2025-12-26T22:04:57-08:00*%
%TF.ProjectId,HallPCB,48616c6c-5043-4422-9e6b-696361645f70,rev?*%
%TF.SameCoordinates,Original*%
%TF.FileFunction,Drillmap*%
%TF.FilePolarity,Positive*%
%FSLAX45Y45*%
G04 Gerber Fmt 4.5, Leading zero omitted, Abs format (unit mm)*
G04 Created by KiCad (PCBNEW 9.0.2) date 2025-12-26 22:04:57*
%MOMM*%
%LPD*%
G01*
G04 APERTURE LIST*
%ADD10C,0.050000*%
%ADD11C,0.200000*%
%ADD12C,0.100000*%
G04 APERTURE END LIST*
D10*
X14478952Y-7770000D02*
X13330000Y-7770000D01*
X14478952Y-8900000D02*
X14478952Y-7770000D01*
X13330000Y-8900000D02*
X14478952Y-8900000D01*
X12765000Y-8900000D02*
G75*
G02*
X12765000Y-7770000I0J565000D01*
G01*
X12765000Y-7770000D02*
X13330000Y-7770000D01*
X12765000Y-8900000D02*
X13330000Y-8900000D01*
D11*
D12*
X13681896Y-8315000D02*
X13711896Y-8345000D01*
X13711896Y-8315000D02*
X13681896Y-8345000D01*
X14123540Y-7950620D02*
G75*
G02*
X14023540Y-7950620I-50000J0D01*
G01*
X14023540Y-7950620D02*
G75*
G02*
X14123540Y-7950620I50000J0D01*
G01*
X14123540Y-8204620D02*
G75*
G02*
X14023540Y-8204620I-50000J0D01*
G01*
X14023540Y-8204620D02*
G75*
G02*
X14123540Y-8204620I50000J0D01*
G01*
X14123540Y-8458620D02*
G75*
G02*
X14023540Y-8458620I-50000J0D01*
G01*
X14023540Y-8458620D02*
G75*
G02*
X14123540Y-8458620I50000J0D01*
G01*
X14123540Y-8712620D02*
G75*
G02*
X14023540Y-8712620I-50000J0D01*
G01*
X14023540Y-8712620D02*
G75*
G02*
X14123540Y-8712620I50000J0D01*
G01*
D11*
X12458277Y-9213984D02*
X12458277Y-9013984D01*
X12458277Y-9013984D02*
X12505896Y-9013984D01*
X12505896Y-9013984D02*
X12534467Y-9023508D01*
X12534467Y-9023508D02*
X12553515Y-9042555D01*
X12553515Y-9042555D02*
X12563039Y-9061603D01*
X12563039Y-9061603D02*
X12572562Y-9099698D01*
X12572562Y-9099698D02*
X12572562Y-9128270D01*
X12572562Y-9128270D02*
X12563039Y-9166365D01*
X12563039Y-9166365D02*
X12553515Y-9185412D01*
X12553515Y-9185412D02*
X12534467Y-9204460D01*
X12534467Y-9204460D02*
X12505896Y-9213984D01*
X12505896Y-9213984D02*
X12458277Y-9213984D01*
X12658277Y-9213984D02*
X12658277Y-9080650D01*
X12658277Y-9118746D02*
X12667801Y-9099698D01*
X12667801Y-9099698D02*
X12677324Y-9090174D01*
X12677324Y-9090174D02*
X12696372Y-9080650D01*
X12696372Y-9080650D02*
X12715420Y-9080650D01*
X12782086Y-9213984D02*
X12782086Y-9080650D01*
X12782086Y-9013984D02*
X12772562Y-9023508D01*
X12772562Y-9023508D02*
X12782086Y-9033031D01*
X12782086Y-9033031D02*
X12791610Y-9023508D01*
X12791610Y-9023508D02*
X12782086Y-9013984D01*
X12782086Y-9013984D02*
X12782086Y-9033031D01*
X12905896Y-9213984D02*
X12886848Y-9204460D01*
X12886848Y-9204460D02*
X12877324Y-9185412D01*
X12877324Y-9185412D02*
X12877324Y-9013984D01*
X13010658Y-9213984D02*
X12991610Y-9204460D01*
X12991610Y-9204460D02*
X12982086Y-9185412D01*
X12982086Y-9185412D02*
X12982086Y-9013984D01*
X13239229Y-9213984D02*
X13239229Y-9013984D01*
X13239229Y-9013984D02*
X13305896Y-9156841D01*
X13305896Y-9156841D02*
X13372562Y-9013984D01*
X13372562Y-9013984D02*
X13372562Y-9213984D01*
X13553515Y-9213984D02*
X13553515Y-9109222D01*
X13553515Y-9109222D02*
X13543991Y-9090174D01*
X13543991Y-9090174D02*
X13524943Y-9080650D01*
X13524943Y-9080650D02*
X13486848Y-9080650D01*
X13486848Y-9080650D02*
X13467801Y-9090174D01*
X13553515Y-9204460D02*
X13534467Y-9213984D01*
X13534467Y-9213984D02*
X13486848Y-9213984D01*
X13486848Y-9213984D02*
X13467801Y-9204460D01*
X13467801Y-9204460D02*
X13458277Y-9185412D01*
X13458277Y-9185412D02*
X13458277Y-9166365D01*
X13458277Y-9166365D02*
X13467801Y-9147317D01*
X13467801Y-9147317D02*
X13486848Y-9137793D01*
X13486848Y-9137793D02*
X13534467Y-9137793D01*
X13534467Y-9137793D02*
X13553515Y-9128270D01*
X13648753Y-9080650D02*
X13648753Y-9280650D01*
X13648753Y-9090174D02*
X13667801Y-9080650D01*
X13667801Y-9080650D02*
X13705896Y-9080650D01*
X13705896Y-9080650D02*
X13724943Y-9090174D01*
X13724943Y-9090174D02*
X13734467Y-9099698D01*
X13734467Y-9099698D02*
X13743991Y-9118746D01*
X13743991Y-9118746D02*
X13743991Y-9175889D01*
X13743991Y-9175889D02*
X13734467Y-9194936D01*
X13734467Y-9194936D02*
X13724943Y-9204460D01*
X13724943Y-9204460D02*
X13705896Y-9213984D01*
X13705896Y-9213984D02*
X13667801Y-9213984D01*
X13667801Y-9213984D02*
X13648753Y-9204460D01*
X13829705Y-9194936D02*
X13839229Y-9204460D01*
X13839229Y-9204460D02*
X13829705Y-9213984D01*
X13829705Y-9213984D02*
X13820182Y-9204460D01*
X13820182Y-9204460D02*
X13829705Y-9194936D01*
X13829705Y-9194936D02*
X13829705Y-9213984D01*
X13829705Y-9090174D02*
X13839229Y-9099698D01*
X13839229Y-9099698D02*
X13829705Y-9109222D01*
X13829705Y-9109222D02*
X13820182Y-9099698D01*
X13820182Y-9099698D02*
X13829705Y-9090174D01*
X13829705Y-9090174D02*
X13829705Y-9109222D01*
D12*
X12167500Y-9527500D02*
X12197500Y-9557500D01*
X12197500Y-9527500D02*
X12167500Y-9557500D01*
D11*
X12496372Y-9433984D02*
X12515420Y-9433984D01*
X12515420Y-9433984D02*
X12534467Y-9443508D01*
X12534467Y-9443508D02*
X12543991Y-9453031D01*
X12543991Y-9453031D02*
X12553515Y-9472079D01*
X12553515Y-9472079D02*
X12563039Y-9510174D01*
X12563039Y-9510174D02*
X12563039Y-9557793D01*
X12563039Y-9557793D02*
X12553515Y-9595889D01*
X12553515Y-9595889D02*
X12543991Y-9614936D01*
X12543991Y-9614936D02*
X12534467Y-9624460D01*
X12534467Y-9624460D02*
X12515420Y-9633984D01*
X12515420Y-9633984D02*
X12496372Y-9633984D01*
X12496372Y-9633984D02*
X12477324Y-9624460D01*
X12477324Y-9624460D02*
X12467801Y-9614936D01*
X12467801Y-9614936D02*
X12458277Y-9595889D01*
X12458277Y-9595889D02*
X12448753Y-9557793D01*
X12448753Y-9557793D02*
X12448753Y-9510174D01*
X12448753Y-9510174D02*
X12458277Y-9472079D01*
X12458277Y-9472079D02*
X12467801Y-9453031D01*
X12467801Y-9453031D02*
X12477324Y-9443508D01*
X12477324Y-9443508D02*
X12496372Y-9433984D01*
X12648753Y-9614936D02*
X12658277Y-9624460D01*
X12658277Y-9624460D02*
X12648753Y-9633984D01*
X12648753Y-9633984D02*
X12639229Y-9624460D01*
X12639229Y-9624460D02*
X12648753Y-9614936D01*
X12648753Y-9614936D02*
X12648753Y-9633984D01*
X12724943Y-9433984D02*
X12848753Y-9433984D01*
X12848753Y-9433984D02*
X12782086Y-9510174D01*
X12782086Y-9510174D02*
X12810658Y-9510174D01*
X12810658Y-9510174D02*
X12829705Y-9519698D01*
X12829705Y-9519698D02*
X12839229Y-9529222D01*
X12839229Y-9529222D02*
X12848753Y-9548270D01*
X12848753Y-9548270D02*
X12848753Y-9595889D01*
X12848753Y-9595889D02*
X12839229Y-9614936D01*
X12839229Y-9614936D02*
X12829705Y-9624460D01*
X12829705Y-9624460D02*
X12810658Y-9633984D01*
X12810658Y-9633984D02*
X12753515Y-9633984D01*
X12753515Y-9633984D02*
X12734467Y-9624460D01*
X12734467Y-9624460D02*
X12724943Y-9614936D01*
X12972562Y-9433984D02*
X12991610Y-9433984D01*
X12991610Y-9433984D02*
X13010658Y-9443508D01*
X13010658Y-9443508D02*
X13020182Y-9453031D01*
X13020182Y-9453031D02*
X13029705Y-9472079D01*
X13029705Y-9472079D02*
X13039229Y-9510174D01*
X13039229Y-9510174D02*
X13039229Y-9557793D01*
X13039229Y-9557793D02*
X13029705Y-9595889D01*
X13029705Y-9595889D02*
X13020182Y-9614936D01*
X13020182Y-9614936D02*
X13010658Y-9624460D01*
X13010658Y-9624460D02*
X12991610Y-9633984D01*
X12991610Y-9633984D02*
X12972562Y-9633984D01*
X12972562Y-9633984D02*
X12953515Y-9624460D01*
X12953515Y-9624460D02*
X12943991Y-9614936D01*
X12943991Y-9614936D02*
X12934467Y-9595889D01*
X12934467Y-9595889D02*
X12924943Y-9557793D01*
X12924943Y-9557793D02*
X12924943Y-9510174D01*
X12924943Y-9510174D02*
X12934467Y-9472079D01*
X12934467Y-9472079D02*
X12943991Y-9453031D01*
X12943991Y-9453031D02*
X12953515Y-9443508D01*
X12953515Y-9443508D02*
X12972562Y-9433984D01*
X13163039Y-9433984D02*
X13182086Y-9433984D01*
X13182086Y-9433984D02*
X13201134Y-9443508D01*
X13201134Y-9443508D02*
X13210658Y-9453031D01*
X13210658Y-9453031D02*
X13220182Y-9472079D01*
X13220182Y-9472079D02*
X13229705Y-9510174D01*
X13229705Y-9510174D02*
X13229705Y-9557793D01*
X13229705Y-9557793D02*
X13220182Y-9595889D01*
X13220182Y-9595889D02*
X13210658Y-9614936D01*
X13210658Y-9614936D02*
X13201134Y-9624460D01*
X13201134Y-9624460D02*
X13182086Y-9633984D01*
X13182086Y-9633984D02*
X13163039Y-9633984D01*
X13163039Y-9633984D02*
X13143991Y-9624460D01*
X13143991Y-9624460D02*
X13134467Y-9614936D01*
X13134467Y-9614936D02*
X13124943Y-9595889D01*
X13124943Y-9595889D02*
X13115420Y-9557793D01*
X13115420Y-9557793D02*
X13115420Y-9510174D01*
X13115420Y-9510174D02*
X13124943Y-9472079D01*
X13124943Y-9472079D02*
X13134467Y-9453031D01*
X13134467Y-9453031D02*
X13143991Y-9443508D01*
X13143991Y-9443508D02*
X13163039Y-9433984D01*
X13315420Y-9633984D02*
X13315420Y-9500650D01*
X13315420Y-9519698D02*
X13324943Y-9510174D01*
X13324943Y-9510174D02*
X13343991Y-9500650D01*
X13343991Y-9500650D02*
X13372563Y-9500650D01*
X13372563Y-9500650D02*
X13391610Y-9510174D01*
X13391610Y-9510174D02*
X13401134Y-9529222D01*
X13401134Y-9529222D02*
X13401134Y-9633984D01*
X13401134Y-9529222D02*
X13410658Y-9510174D01*
X13410658Y-9510174D02*
X13429705Y-9500650D01*
X13429705Y-9500650D02*
X13458277Y-9500650D01*
X13458277Y-9500650D02*
X13477324Y-9510174D01*
X13477324Y-9510174D02*
X13486848Y-9529222D01*
X13486848Y-9529222D02*
X13486848Y-9633984D01*
X13582086Y-9633984D02*
X13582086Y-9500650D01*
X13582086Y-9519698D02*
X13591610Y-9510174D01*
X13591610Y-9510174D02*
X13610658Y-9500650D01*
X13610658Y-9500650D02*
X13639229Y-9500650D01*
X13639229Y-9500650D02*
X13658277Y-9510174D01*
X13658277Y-9510174D02*
X13667801Y-9529222D01*
X13667801Y-9529222D02*
X13667801Y-9633984D01*
X13667801Y-9529222D02*
X13677324Y-9510174D01*
X13677324Y-9510174D02*
X13696372Y-9500650D01*
X13696372Y-9500650D02*
X13724943Y-9500650D01*
X13724943Y-9500650D02*
X13743991Y-9510174D01*
X13743991Y-9510174D02*
X13753515Y-9529222D01*
X13753515Y-9529222D02*
X13753515Y-9633984D01*
X14143991Y-9424460D02*
X13972563Y-9681603D01*
X14401134Y-9433984D02*
X14420182Y-9433984D01*
X14420182Y-9433984D02*
X14439229Y-9443508D01*
X14439229Y-9443508D02*
X14448753Y-9453031D01*
X14448753Y-9453031D02*
X14458277Y-9472079D01*
X14458277Y-9472079D02*
X14467801Y-9510174D01*
X14467801Y-9510174D02*
X14467801Y-9557793D01*
X14467801Y-9557793D02*
X14458277Y-9595889D01*
X14458277Y-9595889D02*
X14448753Y-9614936D01*
X14448753Y-9614936D02*
X14439229Y-9624460D01*
X14439229Y-9624460D02*
X14420182Y-9633984D01*
X14420182Y-9633984D02*
X14401134Y-9633984D01*
X14401134Y-9633984D02*
X14382086Y-9624460D01*
X14382086Y-9624460D02*
X14372563Y-9614936D01*
X14372563Y-9614936D02*
X14363039Y-9595889D01*
X14363039Y-9595889D02*
X14353515Y-9557793D01*
X14353515Y-9557793D02*
X14353515Y-9510174D01*
X14353515Y-9510174D02*
X14363039Y-9472079D01*
X14363039Y-9472079D02*
X14372563Y-9453031D01*
X14372563Y-9453031D02*
X14382086Y-9443508D01*
X14382086Y-9443508D02*
X14401134Y-9433984D01*
X14553515Y-9614936D02*
X14563039Y-9624460D01*
X14563039Y-9624460D02*
X14553515Y-9633984D01*
X14553515Y-9633984D02*
X14543991Y-9624460D01*
X14543991Y-9624460D02*
X14553515Y-9614936D01*
X14553515Y-9614936D02*
X14553515Y-9633984D01*
X14686848Y-9433984D02*
X14705896Y-9433984D01*
X14705896Y-9433984D02*
X14724944Y-9443508D01*
X14724944Y-9443508D02*
X14734467Y-9453031D01*
X14734467Y-9453031D02*
X14743991Y-9472079D01*
X14743991Y-9472079D02*
X14753515Y-9510174D01*
X14753515Y-9510174D02*
X14753515Y-9557793D01*
X14753515Y-9557793D02*
X14743991Y-9595889D01*
X14743991Y-9595889D02*
X14734467Y-9614936D01*
X14734467Y-9614936D02*
X14724944Y-9624460D01*
X14724944Y-9624460D02*
X14705896Y-9633984D01*
X14705896Y-9633984D02*
X14686848Y-9633984D01*
X14686848Y-9633984D02*
X14667801Y-9624460D01*
X14667801Y-9624460D02*
X14658277Y-9614936D01*
X14658277Y-9614936D02*
X14648753Y-9595889D01*
X14648753Y-9595889D02*
X14639229Y-9557793D01*
X14639229Y-9557793D02*
X14639229Y-9510174D01*
X14639229Y-9510174D02*
X14648753Y-9472079D01*
X14648753Y-9472079D02*
X14658277Y-9453031D01*
X14658277Y-9453031D02*
X14667801Y-9443508D01*
X14667801Y-9443508D02*
X14686848Y-9433984D01*
X14943991Y-9633984D02*
X14829706Y-9633984D01*
X14886848Y-9633984D02*
X14886848Y-9433984D01*
X14886848Y-9433984D02*
X14867801Y-9462555D01*
X14867801Y-9462555D02*
X14848753Y-9481603D01*
X14848753Y-9481603D02*
X14829706Y-9491127D01*
X15134467Y-9633984D02*
X15020182Y-9633984D01*
X15077325Y-9633984D02*
X15077325Y-9433984D01*
X15077325Y-9433984D02*
X15058277Y-9462555D01*
X15058277Y-9462555D02*
X15039229Y-9481603D01*
X15039229Y-9481603D02*
X15020182Y-9491127D01*
X15248753Y-9519698D02*
X15229706Y-9510174D01*
X15229706Y-9510174D02*
X15220182Y-9500650D01*
X15220182Y-9500650D02*
X15210658Y-9481603D01*
X15210658Y-9481603D02*
X15210658Y-9472079D01*
X15210658Y-9472079D02*
X15220182Y-9453031D01*
X15220182Y-9453031D02*
X15229706Y-9443508D01*
X15229706Y-9443508D02*
X15248753Y-9433984D01*
X15248753Y-9433984D02*
X15286848Y-9433984D01*
X15286848Y-9433984D02*
X15305896Y-9443508D01*
X15305896Y-9443508D02*
X15315420Y-9453031D01*
X15315420Y-9453031D02*
X15324944Y-9472079D01*
X15324944Y-9472079D02*
X15324944Y-9481603D01*
X15324944Y-9481603D02*
X15315420Y-9500650D01*
X15315420Y-9500650D02*
X15305896Y-9510174D01*
X15305896Y-9510174D02*
X15286848Y-9519698D01*
X15286848Y-9519698D02*
X15248753Y-9519698D01*
X15248753Y-9519698D02*
X15229706Y-9529222D01*
X15229706Y-9529222D02*
X15220182Y-9538746D01*
X15220182Y-9538746D02*
X15210658Y-9557793D01*
X15210658Y-9557793D02*
X15210658Y-9595889D01*
X15210658Y-9595889D02*
X15220182Y-9614936D01*
X15220182Y-9614936D02*
X15229706Y-9624460D01*
X15229706Y-9624460D02*
X15248753Y-9633984D01*
X15248753Y-9633984D02*
X15286848Y-9633984D01*
X15286848Y-9633984D02*
X15305896Y-9624460D01*
X15305896Y-9624460D02*
X15315420Y-9614936D01*
X15315420Y-9614936D02*
X15324944Y-9595889D01*
X15324944Y-9595889D02*
X15324944Y-9557793D01*
X15324944Y-9557793D02*
X15315420Y-9538746D01*
X15315420Y-9538746D02*
X15305896Y-9529222D01*
X15305896Y-9529222D02*
X15286848Y-9519698D01*
X15401134Y-9433984D02*
X15401134Y-9472079D01*
X15477325Y-9433984D02*
X15477325Y-9472079D01*
X15772563Y-9710174D02*
X15763039Y-9700650D01*
X15763039Y-9700650D02*
X15743991Y-9672079D01*
X15743991Y-9672079D02*
X15734468Y-9653031D01*
X15734468Y-9653031D02*
X15724944Y-9624460D01*
X15724944Y-9624460D02*
X15715420Y-9576841D01*
X15715420Y-9576841D02*
X15715420Y-9538746D01*
X15715420Y-9538746D02*
X15724944Y-9491127D01*
X15724944Y-9491127D02*
X15734468Y-9462555D01*
X15734468Y-9462555D02*
X15743991Y-9443508D01*
X15743991Y-9443508D02*
X15763039Y-9414936D01*
X15763039Y-9414936D02*
X15772563Y-9405412D01*
X15953515Y-9633984D02*
X15839229Y-9633984D01*
X15896372Y-9633984D02*
X15896372Y-9433984D01*
X15896372Y-9433984D02*
X15877325Y-9462555D01*
X15877325Y-9462555D02*
X15858277Y-9481603D01*
X15858277Y-9481603D02*
X15839229Y-9491127D01*
X16191610Y-9633984D02*
X16191610Y-9433984D01*
X16277325Y-9633984D02*
X16277325Y-9529222D01*
X16277325Y-9529222D02*
X16267801Y-9510174D01*
X16267801Y-9510174D02*
X16248753Y-9500650D01*
X16248753Y-9500650D02*
X16220182Y-9500650D01*
X16220182Y-9500650D02*
X16201134Y-9510174D01*
X16201134Y-9510174D02*
X16191610Y-9519698D01*
X16401134Y-9633984D02*
X16382087Y-9624460D01*
X16382087Y-9624460D02*
X16372563Y-9614936D01*
X16372563Y-9614936D02*
X16363039Y-9595889D01*
X16363039Y-9595889D02*
X16363039Y-9538746D01*
X16363039Y-9538746D02*
X16372563Y-9519698D01*
X16372563Y-9519698D02*
X16382087Y-9510174D01*
X16382087Y-9510174D02*
X16401134Y-9500650D01*
X16401134Y-9500650D02*
X16429706Y-9500650D01*
X16429706Y-9500650D02*
X16448753Y-9510174D01*
X16448753Y-9510174D02*
X16458277Y-9519698D01*
X16458277Y-9519698D02*
X16467801Y-9538746D01*
X16467801Y-9538746D02*
X16467801Y-9595889D01*
X16467801Y-9595889D02*
X16458277Y-9614936D01*
X16458277Y-9614936D02*
X16448753Y-9624460D01*
X16448753Y-9624460D02*
X16429706Y-9633984D01*
X16429706Y-9633984D02*
X16401134Y-9633984D01*
X16582087Y-9633984D02*
X16563039Y-9624460D01*
X16563039Y-9624460D02*
X16553515Y-9605412D01*
X16553515Y-9605412D02*
X16553515Y-9433984D01*
X16734468Y-9624460D02*
X16715420Y-9633984D01*
X16715420Y-9633984D02*
X16677325Y-9633984D01*
X16677325Y-9633984D02*
X16658277Y-9624460D01*
X16658277Y-9624460D02*
X16648753Y-9605412D01*
X16648753Y-9605412D02*
X16648753Y-9529222D01*
X16648753Y-9529222D02*
X16658277Y-9510174D01*
X16658277Y-9510174D02*
X16677325Y-9500650D01*
X16677325Y-9500650D02*
X16715420Y-9500650D01*
X16715420Y-9500650D02*
X16734468Y-9510174D01*
X16734468Y-9510174D02*
X16743991Y-9529222D01*
X16743991Y-9529222D02*
X16743991Y-9548270D01*
X16743991Y-9548270D02*
X16648753Y-9567317D01*
X16810658Y-9710174D02*
X16820182Y-9700650D01*
X16820182Y-9700650D02*
X16839230Y-9672079D01*
X16839230Y-9672079D02*
X16848753Y-9653031D01*
X16848753Y-9653031D02*
X16858277Y-9624460D01*
X16858277Y-9624460D02*
X16867801Y-9576841D01*
X16867801Y-9576841D02*
X16867801Y-9538746D01*
X16867801Y-9538746D02*
X16858277Y-9491127D01*
X16858277Y-9491127D02*
X16848753Y-9462555D01*
X16848753Y-9462555D02*
X16839230Y-9443508D01*
X16839230Y-9443508D02*
X16820182Y-9414936D01*
X16820182Y-9414936D02*
X16810658Y-9405412D01*
D12*
X12197500Y-9806500D02*
G75*
G02*
X12097500Y-9806500I-50000J0D01*
G01*
X12097500Y-9806500D02*
G75*
G02*
X12197500Y-9806500I50000J0D01*
G01*
D11*
X12563039Y-9897984D02*
X12448753Y-9897984D01*
X12505896Y-9897984D02*
X12505896Y-9697984D01*
X12505896Y-9697984D02*
X12486848Y-9726555D01*
X12486848Y-9726555D02*
X12467801Y-9745603D01*
X12467801Y-9745603D02*
X12448753Y-9755127D01*
X12648753Y-9878936D02*
X12658277Y-9888460D01*
X12658277Y-9888460D02*
X12648753Y-9897984D01*
X12648753Y-9897984D02*
X12639229Y-9888460D01*
X12639229Y-9888460D02*
X12648753Y-9878936D01*
X12648753Y-9878936D02*
X12648753Y-9897984D01*
X12782086Y-9697984D02*
X12801134Y-9697984D01*
X12801134Y-9697984D02*
X12820182Y-9707508D01*
X12820182Y-9707508D02*
X12829705Y-9717031D01*
X12829705Y-9717031D02*
X12839229Y-9736079D01*
X12839229Y-9736079D02*
X12848753Y-9774174D01*
X12848753Y-9774174D02*
X12848753Y-9821793D01*
X12848753Y-9821793D02*
X12839229Y-9859889D01*
X12839229Y-9859889D02*
X12829705Y-9878936D01*
X12829705Y-9878936D02*
X12820182Y-9888460D01*
X12820182Y-9888460D02*
X12801134Y-9897984D01*
X12801134Y-9897984D02*
X12782086Y-9897984D01*
X12782086Y-9897984D02*
X12763039Y-9888460D01*
X12763039Y-9888460D02*
X12753515Y-9878936D01*
X12753515Y-9878936D02*
X12743991Y-9859889D01*
X12743991Y-9859889D02*
X12734467Y-9821793D01*
X12734467Y-9821793D02*
X12734467Y-9774174D01*
X12734467Y-9774174D02*
X12743991Y-9736079D01*
X12743991Y-9736079D02*
X12753515Y-9717031D01*
X12753515Y-9717031D02*
X12763039Y-9707508D01*
X12763039Y-9707508D02*
X12782086Y-9697984D01*
X12972562Y-9697984D02*
X12991610Y-9697984D01*
X12991610Y-9697984D02*
X13010658Y-9707508D01*
X13010658Y-9707508D02*
X13020182Y-9717031D01*
X13020182Y-9717031D02*
X13029705Y-9736079D01*
X13029705Y-9736079D02*
X13039229Y-9774174D01*
X13039229Y-9774174D02*
X13039229Y-9821793D01*
X13039229Y-9821793D02*
X13029705Y-9859889D01*
X13029705Y-9859889D02*
X13020182Y-9878936D01*
X13020182Y-9878936D02*
X13010658Y-9888460D01*
X13010658Y-9888460D02*
X12991610Y-9897984D01*
X12991610Y-9897984D02*
X12972562Y-9897984D01*
X12972562Y-9897984D02*
X12953515Y-9888460D01*
X12953515Y-9888460D02*
X12943991Y-9878936D01*
X12943991Y-9878936D02*
X12934467Y-9859889D01*
X12934467Y-9859889D02*
X12924943Y-9821793D01*
X12924943Y-9821793D02*
X12924943Y-9774174D01*
X12924943Y-9774174D02*
X12934467Y-9736079D01*
X12934467Y-9736079D02*
X12943991Y-9717031D01*
X12943991Y-9717031D02*
X12953515Y-9707508D01*
X12953515Y-9707508D02*
X12972562Y-9697984D01*
X13163039Y-9697984D02*
X13182086Y-9697984D01*
X13182086Y-9697984D02*
X13201134Y-9707508D01*
X13201134Y-9707508D02*
X13210658Y-9717031D01*
X13210658Y-9717031D02*
X13220182Y-9736079D01*
X13220182Y-9736079D02*
X13229705Y-9774174D01*
X13229705Y-9774174D02*
X13229705Y-9821793D01*
X13229705Y-9821793D02*
X13220182Y-9859889D01*
X13220182Y-9859889D02*
X13210658Y-9878936D01*
X13210658Y-9878936D02*
X13201134Y-9888460D01*
X13201134Y-9888460D02*
X13182086Y-9897984D01*
X13182086Y-9897984D02*
X13163039Y-9897984D01*
X13163039Y-9897984D02*
X13143991Y-9888460D01*
X13143991Y-9888460D02*
X13134467Y-9878936D01*
X13134467Y-9878936D02*
X13124943Y-9859889D01*
X13124943Y-9859889D02*
X13115420Y-9821793D01*
X13115420Y-9821793D02*
X13115420Y-9774174D01*
X13115420Y-9774174D02*
X13124943Y-9736079D01*
X13124943Y-9736079D02*
X13134467Y-9717031D01*
X13134467Y-9717031D02*
X13143991Y-9707508D01*
X13143991Y-9707508D02*
X13163039Y-9697984D01*
X13315420Y-9897984D02*
X13315420Y-9764650D01*
X13315420Y-9783698D02*
X13324943Y-9774174D01*
X13324943Y-9774174D02*
X13343991Y-9764650D01*
X13343991Y-9764650D02*
X13372563Y-9764650D01*
X13372563Y-9764650D02*
X13391610Y-9774174D01*
X13391610Y-9774174D02*
X13401134Y-9793222D01*
X13401134Y-9793222D02*
X13401134Y-9897984D01*
X13401134Y-9793222D02*
X13410658Y-9774174D01*
X13410658Y-9774174D02*
X13429705Y-9764650D01*
X13429705Y-9764650D02*
X13458277Y-9764650D01*
X13458277Y-9764650D02*
X13477324Y-9774174D01*
X13477324Y-9774174D02*
X13486848Y-9793222D01*
X13486848Y-9793222D02*
X13486848Y-9897984D01*
X13582086Y-9897984D02*
X13582086Y-9764650D01*
X13582086Y-9783698D02*
X13591610Y-9774174D01*
X13591610Y-9774174D02*
X13610658Y-9764650D01*
X13610658Y-9764650D02*
X13639229Y-9764650D01*
X13639229Y-9764650D02*
X13658277Y-9774174D01*
X13658277Y-9774174D02*
X13667801Y-9793222D01*
X13667801Y-9793222D02*
X13667801Y-9897984D01*
X13667801Y-9793222D02*
X13677324Y-9774174D01*
X13677324Y-9774174D02*
X13696372Y-9764650D01*
X13696372Y-9764650D02*
X13724943Y-9764650D01*
X13724943Y-9764650D02*
X13743991Y-9774174D01*
X13743991Y-9774174D02*
X13753515Y-9793222D01*
X13753515Y-9793222D02*
X13753515Y-9897984D01*
X14143991Y-9688460D02*
X13972563Y-9945603D01*
X14401134Y-9697984D02*
X14420182Y-9697984D01*
X14420182Y-9697984D02*
X14439229Y-9707508D01*
X14439229Y-9707508D02*
X14448753Y-9717031D01*
X14448753Y-9717031D02*
X14458277Y-9736079D01*
X14458277Y-9736079D02*
X14467801Y-9774174D01*
X14467801Y-9774174D02*
X14467801Y-9821793D01*
X14467801Y-9821793D02*
X14458277Y-9859889D01*
X14458277Y-9859889D02*
X14448753Y-9878936D01*
X14448753Y-9878936D02*
X14439229Y-9888460D01*
X14439229Y-9888460D02*
X14420182Y-9897984D01*
X14420182Y-9897984D02*
X14401134Y-9897984D01*
X14401134Y-9897984D02*
X14382086Y-9888460D01*
X14382086Y-9888460D02*
X14372563Y-9878936D01*
X14372563Y-9878936D02*
X14363039Y-9859889D01*
X14363039Y-9859889D02*
X14353515Y-9821793D01*
X14353515Y-9821793D02*
X14353515Y-9774174D01*
X14353515Y-9774174D02*
X14363039Y-9736079D01*
X14363039Y-9736079D02*
X14372563Y-9717031D01*
X14372563Y-9717031D02*
X14382086Y-9707508D01*
X14382086Y-9707508D02*
X14401134Y-9697984D01*
X14553515Y-9878936D02*
X14563039Y-9888460D01*
X14563039Y-9888460D02*
X14553515Y-9897984D01*
X14553515Y-9897984D02*
X14543991Y-9888460D01*
X14543991Y-9888460D02*
X14553515Y-9878936D01*
X14553515Y-9878936D02*
X14553515Y-9897984D01*
X14686848Y-9697984D02*
X14705896Y-9697984D01*
X14705896Y-9697984D02*
X14724944Y-9707508D01*
X14724944Y-9707508D02*
X14734467Y-9717031D01*
X14734467Y-9717031D02*
X14743991Y-9736079D01*
X14743991Y-9736079D02*
X14753515Y-9774174D01*
X14753515Y-9774174D02*
X14753515Y-9821793D01*
X14753515Y-9821793D02*
X14743991Y-9859889D01*
X14743991Y-9859889D02*
X14734467Y-9878936D01*
X14734467Y-9878936D02*
X14724944Y-9888460D01*
X14724944Y-9888460D02*
X14705896Y-9897984D01*
X14705896Y-9897984D02*
X14686848Y-9897984D01*
X14686848Y-9897984D02*
X14667801Y-9888460D01*
X14667801Y-9888460D02*
X14658277Y-9878936D01*
X14658277Y-9878936D02*
X14648753Y-9859889D01*
X14648753Y-9859889D02*
X14639229Y-9821793D01*
X14639229Y-9821793D02*
X14639229Y-9774174D01*
X14639229Y-9774174D02*
X14648753Y-9736079D01*
X14648753Y-9736079D02*
X14658277Y-9717031D01*
X14658277Y-9717031D02*
X14667801Y-9707508D01*
X14667801Y-9707508D02*
X14686848Y-9697984D01*
X14820182Y-9697984D02*
X14943991Y-9697984D01*
X14943991Y-9697984D02*
X14877325Y-9774174D01*
X14877325Y-9774174D02*
X14905896Y-9774174D01*
X14905896Y-9774174D02*
X14924944Y-9783698D01*
X14924944Y-9783698D02*
X14934467Y-9793222D01*
X14934467Y-9793222D02*
X14943991Y-9812270D01*
X14943991Y-9812270D02*
X14943991Y-9859889D01*
X14943991Y-9859889D02*
X14934467Y-9878936D01*
X14934467Y-9878936D02*
X14924944Y-9888460D01*
X14924944Y-9888460D02*
X14905896Y-9897984D01*
X14905896Y-9897984D02*
X14848753Y-9897984D01*
X14848753Y-9897984D02*
X14829706Y-9888460D01*
X14829706Y-9888460D02*
X14820182Y-9878936D01*
X15039229Y-9897984D02*
X15077325Y-9897984D01*
X15077325Y-9897984D02*
X15096372Y-9888460D01*
X15096372Y-9888460D02*
X15105896Y-9878936D01*
X15105896Y-9878936D02*
X15124944Y-9850365D01*
X15124944Y-9850365D02*
X15134467Y-9812270D01*
X15134467Y-9812270D02*
X15134467Y-9736079D01*
X15134467Y-9736079D02*
X15124944Y-9717031D01*
X15124944Y-9717031D02*
X15115420Y-9707508D01*
X15115420Y-9707508D02*
X15096372Y-9697984D01*
X15096372Y-9697984D02*
X15058277Y-9697984D01*
X15058277Y-9697984D02*
X15039229Y-9707508D01*
X15039229Y-9707508D02*
X15029706Y-9717031D01*
X15029706Y-9717031D02*
X15020182Y-9736079D01*
X15020182Y-9736079D02*
X15020182Y-9783698D01*
X15020182Y-9783698D02*
X15029706Y-9802746D01*
X15029706Y-9802746D02*
X15039229Y-9812270D01*
X15039229Y-9812270D02*
X15058277Y-9821793D01*
X15058277Y-9821793D02*
X15096372Y-9821793D01*
X15096372Y-9821793D02*
X15115420Y-9812270D01*
X15115420Y-9812270D02*
X15124944Y-9802746D01*
X15124944Y-9802746D02*
X15134467Y-9783698D01*
X15305896Y-9764650D02*
X15305896Y-9897984D01*
X15258277Y-9688460D02*
X15210658Y-9831317D01*
X15210658Y-9831317D02*
X15334467Y-9831317D01*
X15401134Y-9697984D02*
X15401134Y-9736079D01*
X15477325Y-9697984D02*
X15477325Y-9736079D01*
X15772563Y-9974174D02*
X15763039Y-9964650D01*
X15763039Y-9964650D02*
X15743991Y-9936079D01*
X15743991Y-9936079D02*
X15734468Y-9917031D01*
X15734468Y-9917031D02*
X15724944Y-9888460D01*
X15724944Y-9888460D02*
X15715420Y-9840841D01*
X15715420Y-9840841D02*
X15715420Y-9802746D01*
X15715420Y-9802746D02*
X15724944Y-9755127D01*
X15724944Y-9755127D02*
X15734468Y-9726555D01*
X15734468Y-9726555D02*
X15743991Y-9707508D01*
X15743991Y-9707508D02*
X15763039Y-9678936D01*
X15763039Y-9678936D02*
X15772563Y-9669412D01*
X15934468Y-9764650D02*
X15934468Y-9897984D01*
X15886848Y-9688460D02*
X15839229Y-9831317D01*
X15839229Y-9831317D02*
X15963039Y-9831317D01*
X16191610Y-9897984D02*
X16191610Y-9697984D01*
X16277325Y-9897984D02*
X16277325Y-9793222D01*
X16277325Y-9793222D02*
X16267801Y-9774174D01*
X16267801Y-9774174D02*
X16248753Y-9764650D01*
X16248753Y-9764650D02*
X16220182Y-9764650D01*
X16220182Y-9764650D02*
X16201134Y-9774174D01*
X16201134Y-9774174D02*
X16191610Y-9783698D01*
X16401134Y-9897984D02*
X16382087Y-9888460D01*
X16382087Y-9888460D02*
X16372563Y-9878936D01*
X16372563Y-9878936D02*
X16363039Y-9859889D01*
X16363039Y-9859889D02*
X16363039Y-9802746D01*
X16363039Y-9802746D02*
X16372563Y-9783698D01*
X16372563Y-9783698D02*
X16382087Y-9774174D01*
X16382087Y-9774174D02*
X16401134Y-9764650D01*
X16401134Y-9764650D02*
X16429706Y-9764650D01*
X16429706Y-9764650D02*
X16448753Y-9774174D01*
X16448753Y-9774174D02*
X16458277Y-9783698D01*
X16458277Y-9783698D02*
X16467801Y-9802746D01*
X16467801Y-9802746D02*
X16467801Y-9859889D01*
X16467801Y-9859889D02*
X16458277Y-9878936D01*
X16458277Y-9878936D02*
X16448753Y-9888460D01*
X16448753Y-9888460D02*
X16429706Y-9897984D01*
X16429706Y-9897984D02*
X16401134Y-9897984D01*
X16582087Y-9897984D02*
X16563039Y-9888460D01*
X16563039Y-9888460D02*
X16553515Y-9869412D01*
X16553515Y-9869412D02*
X16553515Y-9697984D01*
X16734468Y-9888460D02*
X16715420Y-9897984D01*
X16715420Y-9897984D02*
X16677325Y-9897984D01*
X16677325Y-9897984D02*
X16658277Y-9888460D01*
X16658277Y-9888460D02*
X16648753Y-9869412D01*
X16648753Y-9869412D02*
X16648753Y-9793222D01*
X16648753Y-9793222D02*
X16658277Y-9774174D01*
X16658277Y-9774174D02*
X16677325Y-9764650D01*
X16677325Y-9764650D02*
X16715420Y-9764650D01*
X16715420Y-9764650D02*
X16734468Y-9774174D01*
X16734468Y-9774174D02*
X16743991Y-9793222D01*
X16743991Y-9793222D02*
X16743991Y-9812270D01*
X16743991Y-9812270D02*
X16648753Y-9831317D01*
X16820182Y-9888460D02*
X16839230Y-9897984D01*
X16839230Y-9897984D02*
X16877325Y-9897984D01*
X16877325Y-9897984D02*
X16896373Y-9888460D01*
X16896373Y-9888460D02*
X16905896Y-9869412D01*
X16905896Y-9869412D02*
X16905896Y-9859889D01*
X16905896Y-9859889D02*
X16896373Y-9840841D01*
X16896373Y-9840841D02*
X16877325Y-9831317D01*
X16877325Y-9831317D02*
X16848753Y-9831317D01*
X16848753Y-9831317D02*
X16829706Y-9821793D01*
X16829706Y-9821793D02*
X16820182Y-9802746D01*
X16820182Y-9802746D02*
X16820182Y-9793222D01*
X16820182Y-9793222D02*
X16829706Y-9774174D01*
X16829706Y-9774174D02*
X16848753Y-9764650D01*
X16848753Y-9764650D02*
X16877325Y-9764650D01*
X16877325Y-9764650D02*
X16896373Y-9774174D01*
X16972563Y-9974174D02*
X16982087Y-9964650D01*
X16982087Y-9964650D02*
X17001134Y-9936079D01*
X17001134Y-9936079D02*
X17010658Y-9917031D01*
X17010658Y-9917031D02*
X17020182Y-9888460D01*
X17020182Y-9888460D02*
X17029706Y-9840841D01*
X17029706Y-9840841D02*
X17029706Y-9802746D01*
X17029706Y-9802746D02*
X17020182Y-9755127D01*
X17020182Y-9755127D02*
X17010658Y-9726555D01*
X17010658Y-9726555D02*
X17001134Y-9707508D01*
X17001134Y-9707508D02*
X16982087Y-9678936D01*
X16982087Y-9678936D02*
X16972563Y-9669412D01*
M02*
